<svg xmlns="http://www.w3.org/2000/svg" viewBox="0 0 714.88 155.62"><defs><style>.cls-1{fill:#44b1de;fill-rule:evenodd;}.cls-2{font-size:43.47px;fill:#939598;font-family:Avenir-Light, Avenir;letter-spacing:0.1em;}.cls-3{letter-spacing:0.1em;}.cls-4{font-size:20px;fill:#58595b;font-family:Avenir-Medium, Avenir;letter-spacing:-0.07em;}.cls-5{letter-spacing:-0.03em;}.cls-6{letter-spacing:-0.04em;}.cls-7{letter-spacing:-0.1em;}.cls-8{letter-spacing:-0.03em;}.cls-9{letter-spacing:-0.07em;}</style></defs><title>Asset 3</title><g id="Layer_2" data-name="Layer 2"><g id="About"><polygon class="cls-1" points="74.55 97.69 48.14 69.48 67.59 48.71 56.75 37.12 0 97.69 21.73 97.69 37.29 81.07 52.86 97.69 74.55 97.69"/><polygon class="cls-1" points="126.91 44.42 137.76 32.83 115.89 9.47 62.53 66.43 91.76 97.69 113.49 97.69 84.22 66.43 115.89 32.65 126.91 44.42"/><polygon class="cls-1" points="198.48 97.69 148.46 44.24 117.83 76.94 128.68 88.54 148.46 67.43 176.79 97.69 198.48 97.69"/><text class="cls-2" transform="translate(219.99 37.12)">LET US DO ALL OF<tspan class="cls-3"><tspan x="0" y="66">THE WORK</tspan></tspan></text><text class="cls-4" transform="translate(223.48 147.44)">W<tspan class="cls-5" x="17.8" y="0">e’</tspan><tspan class="cls-6" x="33.48" y="0">r</tspan><tspan class="cls-5" x="40.02" y="0">e P</tspan><tspan class="cls-6" x="67.06" y="0">r</tspan><tspan class="cls-5" x="73.6" y="0">o</tspan><tspan class="cls-7" x="84.98" y="0">’</tspan><tspan class="cls-8" x="88.56" y="0">s. </tspan><tspan x="107.06" y="0">W</tspan><tspan class="cls-5" x="124.86" y="0">e know what looks good. </tspan><tspan class="cls-9" x="346" y="0">W</tspan><tspan class="cls-8" x="363.8" y="0">e love doing it.</tspan></text></g></g></svg>