<svg xmlns="http://www.w3.org/2000/svg" viewBox="0 0 28.22 28.22"><defs><style>.cls-1{fill:#236a86;}</style></defs><title>Asset 3</title><g id="Layer_2" data-name="Layer 2"><g id="Footer"><g id="zF6wfQ.tif"><path class="cls-1" d="M0,26.87V1.35A2.19,2.19,0,0,1,1.47,0h25.4a2.26,2.26,0,0,1,1.35,1.35V26.87a2.16,2.16,0,0,1-1.35,1.35H19.53c0-.22,0-.45,0-.67q0-4.71,0-9.42v-.71c.26,0,.46,0,.66,0h2.48c.28,0,.52,0,.56-.39q.21-1.76.46-3.52c0-.36-.06-.51-.45-.5-1,0-2.07,0-3.1,0l-.6,0c0-1,0-2,0-3a1.44,1.44,0,0,1,1.56-1.55c.75,0,1.5,0,2.26,0,.37,0,.55-.12.54-.52,0-1,0-2,0-3,0-.33-.11-.49-.45-.49a31.83,31.83,0,0,0-4,0A4.67,4.67,0,0,0,15.26,8,9.54,9.54,0,0,0,15,10C15,11,15,12,15,13c-1.09,0-2.1,0-3.11,0-.45,0-.6.15-.59.58,0,1.09,0,2.18,0,3.27,0,.46.18.59.61.57.79,0,1.58,0,2.37,0s.73,0,.73.75l0,10.1H1.35A2.26,2.26,0,0,1,0,26.87Z"/></g></g></g></svg>