<svg xmlns="http://www.w3.org/2000/svg" viewBox="0 0 31.553 31.553">
  <defs>
    <style>
      .cls-1 {
        fill: #525252;
      }
    </style>
  </defs>
  <path id="iconmonstr-instagram-11" class="cls-1" d="M15.776,2.844c4.212,0,4.712.016,6.376.092,4.275.195,6.272,2.223,6.467,6.467.076,1.663.091,2.163.091,6.375s-.016,4.712-.091,6.375c-.2,4.24-2.188,6.272-6.467,6.467-1.664.076-2.161.092-6.376.092S11.064,28.7,9.4,28.62c-4.286-.2-6.272-2.234-6.467-6.468-.076-1.663-.092-2.161-.092-6.375s.017-4.711.092-6.375C3.13,5.159,5.122,3.129,9.4,2.934c1.664-.075,2.163-.091,6.375-.091Zm0-2.844c-4.285,0-4.821.018-6.5.095C3.543.358.359,3.537.1,9.271.018,10.955,0,11.492,0,15.776S.018,20.6.095,22.282c.263,5.729,3.442,8.914,9.177,9.177,1.684.076,2.221.095,6.505.095s4.822-.018,6.505-.095c5.724-.263,8.916-3.442,9.175-9.177.078-1.683.1-2.221.1-6.505s-.018-4.821-.095-6.5C31.2,3.548,28.017.359,22.283.1,20.6.018,20.061,0,15.776,0Zm0,7.675a8.1,8.1,0,1,0,8.1,8.1A8.1,8.1,0,0,0,15.776,7.675Zm0,13.36a5.259,5.259,0,1,1,5.259-5.259A5.258,5.258,0,0,1,15.776,21.035ZM24.2,5.463A1.893,1.893,0,1,0,26.09,7.356,1.894,1.894,0,0,0,24.2,5.463Z"/>
</svg>
