<svg xmlns="http://www.w3.org/2000/svg" viewBox="-701 115 450.273 40.089"><defs><style>.a{fill-rule:evenodd;}</style></defs><g transform="translate(-874 91)"><g transform="translate(173 24)"><path class="a" d="M32.391,34.59l-11.475-12.2,8.57-9.005L24.692,8.3,0,34.59H9.441l6.827-7.117,6.681,7.117Z" transform="translate(0 3.756)"/><path class="a" d="M46.733,15.251l4.793-5.084L41.94,0,18.7,24.838,31.482,38.346h9.441L28.141,24.838l13.8-14.815Z" transform="translate(8.462)"/><path class="a" d="M70.45,33.64,48.663,10.4,35.3,24.634l4.793,5.084,8.57-9.151L61.009,33.64Z" transform="translate(15.973 4.706)"/><g transform="translate(97.608 15.251)"><path d="M364.3,11h-5.084l-5.374,6.827,2.614,3.2Zm-45.463,9.877h-11.91V11H303V34.821h3.922V24.8h11.91V34.821h3.922V11h-3.922ZM329.73,34.821h3.922V11H329.73Zm22.659-15.106h0l-1.307-1.6-.145-.145-5.374-6.827h-5.084l9.3,11.91-9.3,11.91h5.084l6.827-8.715,6.827,8.715H364.3l-7.843-9.877ZM288.043,11h-11.91V34.821h3.922V26.832h7.989a7.675,7.675,0,0,0,5.665-2.324,7.585,7.585,0,0,0,2.324-5.519A7.935,7.935,0,0,0,288.043,11m2.905,10.748a3.968,3.968,0,0,1-2.76,1.162H280.2V14.922h7.989a3.968,3.968,0,0,1,2.76,1.162,4.056,4.056,0,0,1,1.162,2.9,3.968,3.968,0,0,1-1.162,2.76M245.485,34.821h4.5L251.15,32.5l2.76-5.665h0L257.4,19.86l2.179,4.357,3.341,6.681.726,1.307.145.145,1.162,2.469h4.5L257.4,11Zm-43.72-9.877h5.955v3.341a7.1,7.1,0,0,1-2.614,2.033,8.616,8.616,0,0,1-3.341.726,7.935,7.935,0,0,1-7.989-7.989,7.143,7.143,0,0,1,2.324-5.519,8.282,8.282,0,0,1,5.665-2.324,7.675,7.675,0,0,1,5.665,2.324l2.9-2.76a13.529,13.529,0,0,0-3.777-2.614,12.581,12.581,0,0,0-4.648-.871,11.4,11.4,0,0,0-8.424,3.486A11.634,11.634,0,0,0,190,23.2a11.4,11.4,0,0,0,3.486,8.424,11.4,11.4,0,0,0,8.424,3.486,11.057,11.057,0,0,0,3.05-.436,8.992,8.992,0,0,0,2.76-1.017,8.861,8.861,0,0,0,2.324-1.743,25.257,25.257,0,0,0,1.888-2.179v-8.57H201.91v3.776Zm35.3-1.6a7.128,7.128,0,0,0,1.307-4.5,7.143,7.143,0,0,0-2.324-5.519A7.585,7.585,0,0,0,230.525,11h-11.91V34.821h3.922V26.832h6.827l4.648,7.989h4.5l-4.938-8.57a7.555,7.555,0,0,0,3.486-2.9m-3.631-1.6a3.968,3.968,0,0,1-2.76,1.162h-7.989V15.067h7.989a3.719,3.719,0,0,1,2.76,1.162,3.858,3.858,0,0,1,0,5.519" transform="translate(-11.634 -10.274)"/><path d="M93.926,14.567h15.832V10.645H93.926ZM128.5,19.215h0l-6.681-8.57H116.73l9.3,11.91-9.3,11.91h5.084l6.681-8.715,6.827,8.715h5.084l-9.3-11.91ZM93.926,24.444h15.832V20.522H93.926ZM67.2,14.567h7.989V34.321H79.11V14.567h7.843V10.645H67.2ZM106.417,30.4H93.781v3.922h15.832V30.4Zm23.53-13.072,2.614,3.2,7.7-9.877h-5.084ZM219.276,30.4h-11.91v3.922H223.2V30.4Zm-11.91-5.955H223.2V20.522H207.366Zm0-9.877H223.2V10.645H207.366ZM188.629,10.5h-3.922V34.176h15.832V30.254h-11.91Zm-41.541,4.067h7.989V34.321H159V14.567h7.843V10.645H147.087v3.922Zm26.726,19.754h3.922V10.5h-3.922Z" transform="translate(-67.2 -10.5)"/></g></g></g></svg>