<svg xmlns="http://www.w3.org/2000/svg" viewBox="0 0 349.341 136.389">
  <defs>
    <style>
      .cls-1, .cls-2 {
        fill: #fff;
      }

      .cls-1 {
        fill-rule: evenodd;
      }
    </style>
  </defs>
  <g id="Group_425" data-name="Group 425" transform="translate(-259.85 42.841)">
    <g id="Group_2" data-name="Group 2" transform="translate(259.85 -42.841)">
      <path id="Path_1" data-name="Path 1" class="cls-1" d="M76.134,70.095,49.163,41.416,69.306,20.249,58.039,8.3,0,70.095H22.191L38.238,53.366l15.7,16.729Z" transform="translate(73.643 20.037)"/>
      <path id="Path_2" data-name="Path 2" class="cls-1" d="M84.592,35.848,95.858,23.9,73.325,0,18.7,58.38,48.744,90.131H70.935L40.891,58.38,73.325,23.557Z" transform="translate(118.786 0)"/>
      <path id="Path_3" data-name="Path 3" class="cls-1" d="M117.92,65.025,66.709,10.4,35.3,43.858,46.566,55.807,66.709,34.3l29.02,30.727Z" transform="translate(158.86 25.106)"/>
      <g id="Group_1" data-name="Group 1" transform="translate(0 111.785)">
        <path id="Path_4" data-name="Path 4" class="cls-2" d="M362.656,11H357.62L352.3,17.762l2.59,3.165Zm-45.034,9.784h-11.8V11h-3.885V34.6h3.885V24.669h11.8V34.6h3.885V11h-3.885ZM328.413,34.6H332.3V11h-3.885Zm22.445-14.964h0l-1.295-1.583-.144-.144L344.1,11.144H339.06l9.208,11.8-9.208,11.8H344.1l6.762-8.633,6.762,8.633h5.036l-7.769-9.784ZM287.119,11h-11.8V34.6h3.885V26.683h7.913a7.6,7.6,0,0,0,5.611-2.3,7.513,7.513,0,0,0,2.3-5.467A7.86,7.86,0,0,0,287.119,11M290,21.647a3.931,3.931,0,0,1-2.734,1.151h-7.913V14.885h7.913A3.931,3.931,0,0,1,290,16.036a4.017,4.017,0,0,1,1.151,2.878A3.931,3.931,0,0,1,290,21.647M244.962,34.6h4.46l1.151-2.3,2.734-5.611h0l3.453-6.906,2.158,4.316,3.309,6.618.719,1.295.144.144,1.151,2.446h4.46L256.76,11Zm-43.308-9.784h5.9v3.309a7.032,7.032,0,0,1-2.59,2.014,8.535,8.535,0,0,1-3.309.719,7.86,7.86,0,0,1-7.913-7.913,7.076,7.076,0,0,1,2.3-5.467,8.2,8.2,0,0,1,5.611-2.3,7.6,7.6,0,0,1,5.611,2.3l2.878-2.734a13.4,13.4,0,0,0-3.741-2.59,12.462,12.462,0,0,0-4.6-.863,11.293,11.293,0,0,0-8.345,3.453A11.525,11.525,0,0,0,190,23.086a11.293,11.293,0,0,0,3.453,8.345,11.293,11.293,0,0,0,8.345,3.453,10.953,10.953,0,0,0,3.021-.432,8.907,8.907,0,0,0,2.734-1.007,8.778,8.778,0,0,0,2.3-1.727,25.023,25.023,0,0,0,1.87-2.158V21.072H201.8v3.741Zm34.963-1.583a7.061,7.061,0,0,0,1.295-4.46,7.076,7.076,0,0,0-2.3-5.467,7.514,7.514,0,0,0-5.467-2.3h-11.8V34.6h3.885V26.683h6.762l4.6,7.913h4.46l-4.892-8.489a7.484,7.484,0,0,0,3.453-2.878m-3.6-1.583a3.931,3.931,0,0,1-2.734,1.151h-7.913v-7.77h7.913a3.684,3.684,0,0,1,2.734,1.151,3.822,3.822,0,0,1,0,5.467" transform="translate(-13.315 -10.281)"/>
        <path id="Path_5" data-name="Path 5" class="cls-2" d="M93.674,14.529h15.683V10.644H93.674Zm34.243,4.6h0L121.3,10.644h-5.036l9.208,11.8-9.208,11.8H121.3l6.618-8.633,6.762,8.633h5.036l-9.208-11.8Zm-34.243,5.18h15.683V20.428H93.674ZM67.2,14.529h7.913V34.1H79V14.529h7.77V10.644H67.2Zm38.848,15.683H93.53V34.1h15.683V30.212Zm23.309-12.949,2.59,3.165,7.626-9.784h-5.036Zm88.486,12.949h-11.8V34.1h15.683V30.212Zm-11.8-5.9h15.683V20.428H206.044Zm0-9.784h15.683V10.644H206.044ZM187.484,10.5H183.6V33.952h15.683V30.068h-11.8Zm-41.15,4.029h7.913V34.1h3.885V14.529h7.77V10.644H146.334v3.885ZM172.808,34.1h3.885V10.5h-3.885Z" transform="translate(-67.2 -10.5)"/>
      </g>
    </g>
  </g>
</svg>
