<svg id="Group_605" data-name="Group 605" xmlns="http://www.w3.org/2000/svg" viewBox="0 0 34.543 39.858">
  <defs>
    <style>
      .cls-1 {
        fill: #fff;
      }
    </style>
  </defs>
  <path id="Path_246" data-name="Path 246" class="cls-1" d="M34.485,11.873A6.186,6.186,0,0,0,27.9,5.32H24.782c-.036-.434-.072-.724-.109-1.068h-3.1C20.782,1.917,19.5.034,16.853,0c-2.77-.036-4.182,1.865-5.1,4.308H8.689c-.036.362-.054.634-.091,1.014H6.191A6.152,6.152,0,0,0-.036,11.565c0,7.241-.018,14.482,0,21.723a6.293,6.293,0,0,0,6.553,6.553c7.114.018,14.247.018,21.361,0a6.33,6.33,0,0,0,6.607-6.607Q34.513,22.563,34.485,11.873ZM10.735,6.334H13.9c-.018-1.43,0-2.77,1.213-3.6a3.364,3.364,0,0,1,1.738-.615c1.575-.036,2.263,1.086,2.625,4.2H22.52v5.449H10.735C10.735,9.99,10.735,8.234,10.735,6.334ZM32.295,33.4a4.32,4.32,0,0,1-4.4,4.327H6.535a4.4,4.4,0,0,1-4.562-4.562c-.018-7.187-.018-14.355,0-21.542A4.164,4.164,0,0,1,5.865,7.51c.887-.054,1.792,0,2.77,0v6.336H24.71v-6.3a34,34,0,0,1,4.308.036,4.066,4.066,0,0,1,3.258,4.29V30.609C32.313,31.532,32.313,32.456,32.295,33.4Z" transform="translate(0.044 0.003)"/>
</svg>
