<svg xmlns="http://www.w3.org/2000/svg" viewBox="0 0 35.926 41.453">
  <defs>
    <style>
      .cls-1 {
        fill: #44b1de;
      }
    </style>
  </defs>
  <g id="Group_411" data-name="Group 411" transform="translate(0.044 0.003)">
    <path id="Path_246" data-name="Path 246" class="cls-1" d="M35.867,12.348a6.433,6.433,0,0,0-6.853-6.815H25.776c-.038-.452-.075-.753-.113-1.111H22.443C21.615,1.993,20.278.035,17.53,0,14.649-.04,13.181,1.937,12.22,4.479H9.039c-.038.377-.056.659-.094,1.054H6.44a6.4,6.4,0,0,0-6.477,6.5c0,7.531-.019,15.062,0,22.593a6.544,6.544,0,0,0,6.815,6.815c7.4.019,14.817.019,22.216,0a6.583,6.583,0,0,0,6.872-6.872Q35.9,23.466,35.867,12.348Zm-24.7-5.761h3.295c-.019-1.487,0-2.881,1.261-3.747A3.5,3.5,0,0,1,17.53,2.2c1.638-.038,2.353,1.13,2.73,4.368h3.163v5.667H11.166C11.166,10.39,11.166,8.564,11.166,6.587ZM33.589,34.734a4.493,4.493,0,0,1-4.575,4.5H6.8a4.579,4.579,0,0,1-4.744-4.744c-.019-7.474-.019-14.93,0-22.4A4.331,4.331,0,0,1,6.1,7.811c.923-.056,1.864,0,2.881,0V14.4H25.7V7.849a35.363,35.363,0,0,1,4.481.038,4.229,4.229,0,0,1,3.389,4.462V31.834C33.608,32.795,33.608,33.755,33.589,34.734Z" transform="translate(0 0)"/>
  </g>
</svg>
