<svg xmlns="http://www.w3.org/2000/svg" xmlns:xlink="http://www.w3.org/1999/xlink" viewBox="0 0 43.756 43.756">
  <defs>
    <style>
      .cls-1 {
        fill: #44b1de;
      }

      .cls-2 {
        filter: url(#Path_994);
      }
    </style>
    <filter id="Path_994" x="0" y="0" width="43.756" height="43.756" filterUnits="userSpaceOnUse">
      <feOffset dy="3" input="SourceAlpha"/>
      <feGaussianBlur stdDeviation="3" result="blur"/>
      <feFlood flood-opacity="0.161"/>
      <feComposite operator="in" in2="blur"/>
      <feComposite in="SourceGraphic"/>
    </filter>
  </defs>
  <g id="Group_673" data-name="Group 673" transform="translate(9 6)">
    <g class="cls-2" transform="matrix(1, 0, 0, 1, -9, -6)">
      <path id="Path_994-2" data-name="Path 994" class="cls-1" d="M25.756,12.862A12.878,12.878,0,1,1,12.9,0,12.848,12.848,0,0,1,25.756,12.862Zm-23.155,0A10.277,10.277,0,1,0,12.928,2.6,10.244,10.244,0,0,0,2.6,12.858Z" transform="translate(9 6)"/>
    </g>
    <path id="Path_995" data-name="Path 995" class="cls-1" d="M149.8,209.371c1.93-1.607,3.819-3.179,5.709-4.756.283-.234.561-.477.848-.706a1.279,1.279,0,0,1,1.9.137,1.254,1.254,0,0,1-.225,1.841c-1.766,1.5-3.55,2.967-5.325,4.451-.746.623-1.488,1.254-2.243,1.868a1.3,1.3,0,0,1-2.1-.3c-.812-1.2-1.612-2.406-2.406-3.616a1.3,1.3,0,1,1,2.164-1.426C148.679,207.684,149.226,208.51,149.8,209.371Z" transform="translate(-139.22 -194.566)"/>
  </g>
</svg>
