<svg xmlns="http://www.w3.org/2000/svg" viewBox="-312.407 2508.19 142.231 120.564"><defs><style>.a{fill:#44b1de;}</style></defs><path class="a" d="M313.037,31.221A4.829,4.829,0,0,0,310.068,28L258.352,12.663c-.495,0-.742-.247-1.237-.247a5.212,5.212,0,0,0-3.217,1.237L241.032,26.272l-10.64-14.1a4.8,4.8,0,0,0-4.7-1.732L175.212,22.808A4.5,4.5,0,0,0,172,25.53a4.323,4.323,0,0,0,.742,4.206l12.125,15.836L171.748,66.605a4.452,4.452,0,0,0-.495,3.959,4.9,4.9,0,0,0,2.722,2.722L185.358,77v33.4a4.242,4.242,0,0,0,3.217,4.206l51.963,16.331,52.457-13.362a4.467,4.467,0,0,0,3.464-4.206V74.028l10.64-2.722a4.5,4.5,0,0,0,3.217-2.722,4.323,4.323,0,0,0-.742-4.206l-11.63-15.341L311.8,35.675A4.292,4.292,0,0,0,313.037,31.221ZM244,56.213V38.892l31.178,9.4Zm47.014,56.416L244,124.506V69.822l9.4,12.372c.247.247.495.495.495.742l1.237,1.485,1.98-.495a1.87,1.87,0,0,0,.99-.247l33.157-8.413v37.364Zm-33.9-34.642L244.5,61.656l47.014-11.63,12.619,16.331Zm34.642-30.435L242.516,32.706l14.846-14.6,49.488,14.6ZM226.433,16.127l12.619,16.331L190.8,44.583,178.182,28.252ZM206.885,46.315l5.2-1.485,25.486-6.186V55.965Zm-16.084.742,46.519,14.6L223.958,83.184,177.192,68.832Zm47.014,77.2L191.3,109.66V78.977l31.672,9.9c.247,0,.495.247.742.247l2.474.742,1.237-2.227c.247-.247.495-.495.495-.742l9.9-15.589Z" transform="translate(-483.403 2497.815)"/></svg>