<svg xmlns="http://www.w3.org/2000/svg" viewBox="0 0 57.41 48.73"><defs><style>.cls-1{fill:#44b1de;}</style></defs><title>Asset 12</title><g id="Layer_2" data-name="Layer 2"><g id="Home_Page" data-name="Home Page"><path class="cls-1" d="M57.36,8.41a1.8,1.8,0,0,0-1.23-1.29L35.18.88a1.79,1.79,0,0,0-1.77.44L28.25,6.37,23.94.7A1.82,1.82,0,0,0,22.08.05L1.66,5.1a1.79,1.79,0,0,0-1,2.83l4.87,6.39L.27,22.83a1.79,1.79,0,0,0,1,2.66L5.9,26.93V40.41a1.79,1.79,0,0,0,1.26,1.71l21,6.61,21.18-5.41a1.79,1.79,0,0,0,1.36-1.74V25.64L55,24.56a1.79,1.79,0,0,0,1-2.83l-4.7-6.17,5.6-5.45A1.8,1.8,0,0,0,57.36,8.41Zm-28,10v-7L42,15.27Zm19,22.8L29.39,46V23.94l3.78,5a1.8,1.8,0,0,0,.25.26l.48.63.78-.19a1.79,1.79,0,0,0,.35-.05L48.44,26.2ZM34.77,27.3l-5.06-6.65,19-4.75,5.06,6.65ZM48.71,14.94,28.82,9l6-5.85L54.76,9ZM22.33,2.3l5.06,6.65L7.92,13.76,2.86,7.11ZM14.48,14.48l2.12-.56,10.3-2.55v7Zm-6.59.29,18.77,5.88-5.41,8.75L2.48,23.51ZM26.9,46,8.14,40.08V27.63l12.77,4a1.72,1.72,0,0,0,.34.07l1,.31.53-.86a1.74,1.74,0,0,0,.22-.28l3.92-6.34Z"/></g></g></svg>