<svg xmlns="http://www.w3.org/2000/svg" viewBox="0 0 67.43 55.31"><defs><style>.cls-1{fill:#44b1de;}</style></defs><title>Asset 17</title><g id="Layer_2" data-name="Layer 2"><g id="Home_Page" data-name="Home Page"><path class="cls-1" d="M57.17,33.73,67.27,9.65a2.1,2.1,0,0,0-1.94-2.91H18L15.65,1.27A2.1,2.1,0,0,0,13.72,0H2.1a2.1,2.1,0,1,0,0,4.2H12.34l16.49,38.2.06.12a7.92,7.92,0,1,0,13.24,1.14H49a7.92,7.92,0,1,0,7-4.2H32.14L30.22,35h25A2.1,2.1,0,0,0,57.17,33.73ZM39.79,10.94h4.34L35.69,30.82H31.34Zm-12.2,18-2.15-5,5.53-13h4.26Zm21.1-18h4.55L44.8,30.82H40.25Zm-22.28,0-3.27,7.69-3.32-7.69ZM38.87,47.39a3.73,3.73,0,1,1-3.73-3.73A3.73,3.73,0,0,1,38.87,47.39Zm20.87,0A3.73,3.73,0,1,1,56,43.66,3.73,3.73,0,0,1,59.74,47.39ZM49.36,30.82,57.8,10.94h4.37L53.84,30.82Z"/></g></g></svg>