<svg xmlns="http://www.w3.org/2000/svg" viewBox="-268 4035 70.89 85.82"><defs><style>.a{fill:#44b1de;}</style></defs><g transform="translate(-267.7 4035)"><path class="a" d="M-.228,47.14c.072-.479.144-.959.24-1.438a6.846,6.846,0,0,1,1.414-3.116.864.864,0,0,0,.216-.623c0-3.571.024-7.118-.024-10.689a32.518,32.518,0,0,1,.6-6.471,32.165,32.165,0,0,1,3.139-9.083,27.547,27.547,0,0,1,6.231-7.957,28.68,28.68,0,0,1,9.706-5.584A37.861,37.861,0,0,1,28.027.527,50.389,50.389,0,0,1,35.624,0,.743.743,0,0,1,36.2.24c1.1,1.1,2.181,2.2,3.307,3.283a.781.781,0,0,0,.455.192,30.065,30.065,0,0,1,10.76,2.2,21.449,21.449,0,0,1,9.131,7.166,25.659,25.659,0,0,1,4.074,8.939,34.076,34.076,0,0,1,1.054,6.95c.048,1.51,0,3.02,0,4.577H61.387a5.676,5.676,0,0,0-5.536,4.386,5.841,5.841,0,0,1-.144.623V33.432a.388.388,0,0,0-.336-.455,38.838,38.838,0,0,1-8.508-4,26.536,26.536,0,0,1-6.087-5.248c-.072-.072-.144-.168-.216-.24a.524.524,0,0,0-.12.072,29.378,29.378,0,0,1-8.891,5.3,62.255,62.255,0,0,1-10.377,3.092c-2.564.551-5.177.959-7.765,1.27-.815.1-1.63.168-2.468.24V44.672a1.814,1.814,0,0,1-1.534,1.917,2.37,2.37,0,0,1-1.078-.1c-1.342-.407-2.66-.887-4-1.318a1.272,1.272,0,0,0-.264-.072c-.144.5-.336.983-.431,1.462a6.358,6.358,0,0,0,.192,3.475,4.613,4.613,0,0,0,4.122,3.139.467.467,0,0,1,.192.024c.312.072.695.024.911.216s.216.575.336.887c1.15,3,2.373,5.967,3.739,8.867a59.742,59.742,0,0,0,5.967,10.233,26.321,26.321,0,0,0,5.776,5.872,14.391,14.391,0,0,0,6.495,2.684A12.882,12.882,0,0,0,39.2,80.6a19.248,19.248,0,0,0,5.56-4.362c.983-1.078,1.869-2.253,2.876-3.427-.168-.024-.24-.048-.288-.048H42.574a.271.271,0,0,0-.312.216,5.574,5.574,0,0,1-5.1,3.523c-1.294,0-2.612.024-3.906,0A5.6,5.6,0,0,1,32.6,65.354c.24-.024.5-.048.743-.048h3.691a5.523,5.523,0,0,1,5.2,3.547.279.279,0,0,0,.288.192H49.86a.438.438,0,0,0,.312-.192c.383-.623.767-1.27,1.126-1.893A83.876,83.876,0,0,0,56.019,56.87c.048-.12.1-.216.144-.336a6.047,6.047,0,0,0,2.972,2.828,60.767,60.767,0,0,1-4,8.484c4.026-1.989,6.567-6.159,6.111-11.815A1.831,1.831,0,0,1,59.614,55a2.072,2.072,0,0,1-.216-.839q-.036-7.477,0-14.954a1.841,1.841,0,0,1,1.821-1.845c1.342,0,2.684-.024,4.026,0a5.6,5.6,0,0,1,5.272,4.769c.048.336.048.647.072.983v7.262a5.564,5.564,0,0,1-4.6,5.536c-.312.048-.623.072-.983.12v.288c-.024.935,0,1.869-.072,2.8a13.9,13.9,0,0,1-1.749,5.919,14.7,14.7,0,0,1-9.442,7.309c-.336.1-.695.144-1.054.216a.663.663,0,0,0-.479.312,35.838,35.838,0,0,1-6.662,7.933,19.653,19.653,0,0,1-7.19,4.218,17.466,17.466,0,0,1-3.667.743,2.64,2.64,0,0,1-.431.048H32.269c-.383-.048-.767-.072-1.15-.144a17.914,17.914,0,0,1-7.381-2.732,27.09,27.09,0,0,1-6.495-5.991,55.292,55.292,0,0,1-6.471-10.377c-1.51-3.044-2.828-6.207-4.074-9.37a.551.551,0,0,0-.407-.383A8.556,8.556,0,0,1-.084,50.136c-.1-.383-.144-.767-.216-1.15A16.251,16.251,0,0,0-.228,47.14Z"/></g></svg>