<svg xmlns="http://www.w3.org/2000/svg" viewBox="0 0 85.249 98.365">
  <defs>
    <style>
      .cls-1 {
        fill: #fff;
      }
    </style>
  </defs>
  <g id="Group_355" data-name="Group 355" transform="translate(0.044 0.003)">
    <path id="Path_246" data-name="Path 246" class="cls-1" d="M85.171,29.305c0-9.784-6.478-16.172-16.262-16.172H61.225c-.089-1.072-.179-1.787-.268-2.636H53.317C51.352,4.734,48.18.088,41.657,0c-6.835-.089-10.32,4.6-12.6,10.633h-7.55c-.089.894-.134,1.564-.223,2.5H15.344A15.182,15.182,0,0,0-.025,28.546c0,17.87-.045,35.74,0,53.61,0,9.471,6.7,16.172,16.172,16.172,17.557.045,35.159.045,52.717,0,9.605,0,16.262-6.7,16.306-16.306Q85.238,55.686,85.171,29.305ZM26.557,15.635h7.818c-.045-3.529,0-6.835,2.993-8.89a8.3,8.3,0,0,1,4.289-1.519c3.887-.089,5.584,2.681,6.478,10.365h7.505V29.037H26.557C26.557,24.659,26.557,20.326,26.557,15.635ZM79.765,82.424A10.66,10.66,0,0,1,68.909,93.1H16.192A10.864,10.864,0,0,1,4.934,81.843c-.045-17.736-.045-35.427,0-53.163a10.277,10.277,0,0,1,9.605-10.141c2.189-.134,4.423,0,6.835,0V34.175H61.046V18.628c3.708,0,7.237-.357,10.633.089,4.78.625,8.042,5.182,8.042,10.588V75.544C79.81,77.822,79.81,80.1,79.765,82.424Z" transform="translate(0 0)"/>
    <path id="Path_247" data-name="Path 247" class="cls-1" d="M92.4,86.207c-1.519-.983-3.127-.447-4.423,1.564-2.9,4.557-5.808,9.158-8.667,13.76-3.753,5.942-7.55,11.884-11.392,18-4.423-3.529-8.667-6.969-13-10.409-1.742-1.385-3.4-1.3-4.468.134-1.028,1.385-.759,2.9.894,4.244q7.438,6.031,14.921,12.018c2.055,1.653,3.619,1.43,5-.759Q82.057,107.741,92.8,90.72C94.053,88.754,93.874,87.146,92.4,86.207Z" transform="translate(-27.601 -47.431)"/>
  </g>
</svg>
