<svg id="Group_393" data-name="Group 393" xmlns="http://www.w3.org/2000/svg" viewBox="0 0 38.282 39.657">
  <path id="Path_949" data-name="Path 949" d="M2.133,158.112C.388,157.371,0,156.79,0,154.833V143.8H5.305v8.971H32.942V143.8h5.34v11.033c0,1.939-.388,2.538-2.133,3.278Z" transform="translate(0 -118.455)"/>
  <path id="Path_950" data-name="Path 950" d="M71.344,0A3.763,3.763,0,0,1,71.7,1.093q.026,5.816.018,11.615v1.075c1.269,0,2.468-.018,3.648.018a5.8,5.8,0,0,1,1.058.264,5.633,5.633,0,0,1-.458.987q-3.384,4.442-6.821,8.848c-.864,1.11-1.2,1.075-2.1,0-2.415-2.926-4.865-5.852-7.3-8.8a6.627,6.627,0,0,1-.546-.952h5.023V13.1c0-4.054-.018-8.108.018-12.144,0-.317.264-.635.405-.952Z" transform="translate(-48.766 0)"/>
</svg>
