<svg xmlns="http://www.w3.org/2000/svg" viewBox="0 0 38.65 58.57"><defs><style>.cls-1{fill:#44b1de;}</style></defs><title>Asset 15</title><g id="Layer_2" data-name="Layer 2"><g id="Home_Page" data-name="Home Page"><path class="cls-1" d="M19.35,0c1,1.56,2,3,2.91,4.5A199.06,199.06,0,0,1,34.72,26.61,40.79,40.79,0,0,1,38.4,37a17.19,17.19,0,0,1-3,12.9c-4.48,6.51-10.8,9.53-18.61,8.47C8.4,57.23,3,52.2.61,44.07c-1.17-3.95-.52-7.8.88-11.59A106.85,106.85,0,0,1,9.8,15.43c2.89-4.91,6-9.73,9-14.58C18.92.59,19.11.35,19.35,0Z"/></g></g></svg>