<svg id="Group_379" data-name="Group 379" xmlns="http://www.w3.org/2000/svg" viewBox="0 0 106.444 107.164">
  <defs>
    <style>
      .cls-1 {
        fill: #fff;
      }
    </style>
  </defs>
  <path id="Path_951" data-name="Path 951" class="cls-1" d="M274.131,10.617c1.664,1.6,3.3,3.267,4.93,4.87l2,2c2.662,2.662,3.993,3.993,5.777,3.993h.091c1.815-.06,3.115-1.482,5.686-4.356a8.143,8.143,0,0,0,.242-11.131c-2.117-2.45-4.265-4.718-7.35-5.928L285.171,0h-3.357l-.272.091a17.261,17.261,0,0,0-5.868,4.3c-.544.514-1.089,1.089-1.664,1.573a3.217,3.217,0,0,0-1.21,2.208A3.465,3.465,0,0,0,274.131,10.617Zm10.5-7.592c2.329.968,4.053,2.843,5.9,4.96a5.178,5.178,0,0,1-.212,7.138c-1.543,1.694-2.994,3.327-3.509,3.327s-1.966-1.452-3.63-3.115c-.635-.635-1.24-1.27-1.875-1.875l-.091-.091c-1.6-1.633-3.267-3.3-4.96-4.93a1,1,0,0,1-.181-.181h0c.635-.544,1.21-1.119,1.785-1.694a15.656,15.656,0,0,1,4.567-3.509h2.208Z" transform="translate(-190.287)"/>
  <path id="Path_952" data-name="Path 952" class="cls-1" d="M106.418,84.709l12.734-12.734c.393-.393.786-.817,1.21-1.27.181-.212.393-.423.6-.665l1-1.059-1.059-1.028c-1.028-1.028-2.057-2.027-3.055-3.025l-.121-.121c-2.843-2.783-5.535-5.444-8.2-8.2a3.272,3.272,0,0,0-2.359-1.21,3.435,3.435,0,0,0-2.389,1.24C82.4,79.113,65.1,96.415,48.738,112.687a3.451,3.451,0,0,0-1.24,2.45,3.586,3.586,0,0,0,1.391,2.51l.121.121c3.115,2.994,6.352,6.11,9.316,9.346a4.065,4.065,0,0,0,2.813,1.6H61.2a4.275,4.275,0,0,0,2.934-1.6C78.2,112.96,92.535,98.592,106.418,84.709Zm11.373-15.668c-.242.272-.514.544-.756.786L104.3,82.562l-.121.121c-13.853,13.853-28.16,28.16-42.194,42.285a4.589,4.589,0,0,1-.786.7,3.52,3.52,0,0,1-.635-.575c-3.025-3.3-6.291-6.443-9.437-9.5l-.151-.121-.363-.363a2.474,2.474,0,0,0,.242-.272c16.424-16.3,33.725-33.6,56.138-56.077.091-.091.181-.151.242-.212a.514.514,0,0,1,.181.181c2.692,2.783,5.535,5.565,8.257,8.227l.181.181C116.491,67.741,117.156,68.406,117.791,69.041Z" transform="translate(-33.131 -38.643)"/>
  <path id="Path_953" data-name="Path 953" class="cls-1" d="M227.044,204.729a17.526,17.526,0,0,0-14.186-6.261,4.154,4.154,0,0,1-3.66-1.482c-2.359-2.42-4.779-4.809-7.138-7.138l-.03-.03c-2.269-2.238-4.628-4.567-6.9-6.9a3.8,3.8,0,0,0-2.662-1.422,3.6,3.6,0,0,0-2.541,1.361c-2.994,3.176-6.2,6.412-9.83,9.83a3.446,3.446,0,0,0-1.3,2.45,3.731,3.731,0,0,0,1.361,2.541c1.724,1.664,3.448,3.418,5.142,5.112,2.329,2.359,4.749,4.809,7.229,7.108,2.178,2.027,3.448,3.9,3.478,7.441a16.59,16.59,0,0,0,6.836,12.946,17.105,17.105,0,0,0,10.133,3.478,14.4,14.4,0,0,0,3.962-.544l2.48-.7-1.845-1.815-2.389-2.389c-2.057-2.057-3.993-3.993-6.019-5.959-.665-.635-.726-.938-.6-1.543l.03-.091c.756-3.993,1.149-5.989,2.117-6.987s2.994-1.452,6.987-2.329a2.028,2.028,0,0,0,.665-.212c.393-.212.544-.3,1.331.544,1.936,2.027,3.9,3.993,5.989,6.049l2.541,2.541,1.966,1.966.575-2.722A17.208,17.208,0,0,0,227.044,204.729ZM205.6,220.186l-.03.091a4.435,4.435,0,0,0,1.482,4.3c2.027,1.936,3.932,3.872,5.989,5.928l.272.272a13.93,13.93,0,0,1-8.681-2.873A13.632,13.632,0,0,1,199,217.342c-.03-3.932-1.331-6.715-4.416-9.618-2.42-2.269-4.839-4.688-7.138-7.048-1.694-1.694-3.418-3.448-5.172-5.172a3.035,3.035,0,0,1-.333-.363l.272-.272c3.66-3.478,6.927-6.715,9.951-9.951a3.03,3.03,0,0,1,.363-.333c.091.091.242.212.484.454,2.269,2.329,4.628,4.658,6.926,6.926l.03.03c2.329,2.329,4.749,4.719,7.108,7.108a7.209,7.209,0,0,0,5.959,2.39,14.471,14.471,0,0,1,11.736,5.172,14.229,14.229,0,0,1,3.388,9.346l-.333-.333c-2.057-2.057-4.023-3.993-5.928-6.019-.968-1.028-2.541-2.269-4.749-1.24a.111.111,0,0,0-.091.03C207.867,210.507,207.323,211.051,205.6,220.186Z" transform="translate(-124.719 -126.602)"/>
  <path id="Path_954" data-name="Path 954" class="cls-1" d="M24.275,35.932a9.4,9.4,0,0,0,6.654-2.662,9.214,9.214,0,0,0,2.692-6.564A9.353,9.353,0,0,0,24.335,17.3h-.03A9.372,9.372,0,0,0,14.9,26.585a9.167,9.167,0,0,0,2.631,6.533,9.286,9.286,0,0,0,6.685,2.813Zm.03-16.243.03.6A6.3,6.3,0,0,1,30.6,26.676a6.142,6.142,0,0,1-1.785,4.416,6.3,6.3,0,0,1-4.507,1.785h-.03a6.457,6.457,0,0,1-4.567-1.906,6.209,6.209,0,0,1-1.785-4.356,6.471,6.471,0,0,1,6.382-6.322v-.6Z" transform="translate(-10.392 -12.067)"/>
  <path id="Path_955" data-name="Path 955" class="cls-1" d="M11.343,30.354a4.787,4.787,0,0,1,2.752,1.482c2.45,2.48,4.93,4.93,7.32,7.35,3.962,3.962,8.046,8.046,12.038,12.129a3.719,3.719,0,0,0,2.6,1.391h.03a3.692,3.692,0,0,0,2.6-1.422c3.388-3.569,6.533-6.715,9.649-9.649A3.625,3.625,0,0,0,49.726,39.1,3.909,3.909,0,0,0,48.3,36.433c-3.3-3.236-6.624-6.564-9.83-9.77l-.06-.06c-2.873-2.873-5.838-5.838-8.8-8.741a7.852,7.852,0,0,1-2.389-4.174C25.649,6.61,19.358,2.315,11.917,3.222A13.685,13.685,0,0,0,0,16.894,13.413,13.413,0,0,0,11.343,30.354ZM3.025,16.894A10.7,10.7,0,0,1,12.28,6.217c5.838-.7,10.768,2.6,12.008,8.076a10.786,10.786,0,0,0,3.236,5.656c2.964,2.9,5.928,5.9,8.8,8.772l.06.06c3.206,3.206,6.5,6.533,9.8,9.739A5.074,5.074,0,0,1,46.64,39a1.99,1.99,0,0,1-.363.363c-3.176,2.964-6.352,6.17-9.8,9.77a3.67,3.67,0,0,1-.423.393,3.241,3.241,0,0,1-.454-.393c-4.023-4.114-8.106-8.2-12.068-12.159-2.359-2.359-4.839-4.809-7.289-7.289a7.383,7.383,0,0,0-4.386-2.329h0A10.417,10.417,0,0,1,3.025,16.894Z" transform="translate(0 -2.164)"/>
  <path id="Path_956" data-name="Path 956" class="cls-1" d="M26.139,260.416c-.817,2.087-1.633,4.265-2.45,6.412l-.03.091a2.792,2.792,0,0,0,.514,3.3c1.482,1.452,3.055,3.025,5.112,5.112a2.63,2.63,0,0,0,1.875.847,3.452,3.452,0,0,0,1.27-.272c2.208-.877,4.477-1.724,6.624-2.541l.212-.091c.7-.272,1.391-.544,2.087-.786l2.178-.817L27.833,256Zm2.843,1.028,9.074,9.074-.121.03c-2.178.817-4.446,1.664-6.654,2.541-1.936-1.966-3.448-3.478-4.9-4.9a.43.43,0,0,0,.06-.181l.03-.121c.817-2.178,1.664-4.325,2.45-6.412Z" transform="translate(-16.279 -178.568)"/>
  <path id="Path_957" data-name="Path 957" class="cls-1" d="M252.559,37.592a.8.8,0,0,0,.182.151l.06.06h0c1.18,1.21,2.389,2.42,3.569,3.569,2.178,2.148,4.416,4.386,6.564,6.654a3.3,3.3,0,0,0,2.389,1.24h0a3.494,3.494,0,0,0,2.541-1.482l.061-.091a3.444,3.444,0,0,1,.333-.333l.03-.03a3.2,3.2,0,0,0,1.27-2.389,3.372,3.372,0,0,0-1.27-2.42c-2.42-2.238-4.779-4.658-7.078-6.957-1-1-2-2.027-2.994-3.025-.242-.242-.514-.484-.877-.817l-.03-.03c-.181-.181-.423-.393-.665-.635L255.492,30l-1.785,2.057c-.575.635-1.119,1.27-1.664,1.906a2.461,2.461,0,0,0-.665,1.845A2.68,2.68,0,0,0,252.559,37.592Zm2.178-2.148c.333-.363.635-.726.968-1.119a4.111,4.111,0,0,1,.363.363c.968.968,1.966,1.966,2.934,2.964l.06.06c2.3,2.359,4.688,4.779,7.168,7.047l.182.181-.212.212c-.151.151-.333.3-.484.484l-.06.091a4.013,4.013,0,0,1-.363.363l-.151-.151c-2.178-2.3-4.446-4.537-6.624-6.715l-3.63-3.63A.364.364,0,0,1,254.736,35.444Z" transform="translate(-175.339 -20.926)"/>
  <path id="Path_958" data-name="Path 958" class="cls-1" d="M7.4,312.6l11.1-3.055L10.152,301.2Zm4.446-5.444.877.877-1.149.3Z" transform="translate(-5.162 -210.097)"/>
</svg>
