<svg xmlns="http://www.w3.org/2000/svg" viewBox="0 0 74.36 55.742">
  <defs>
    <style>
      .cls-1 {
        fill: #44b1de;
      }
    </style>
  </defs>
  <g id="Group_315" data-name="Group 315" transform="translate(0.025)">
    <path id="Path_170" data-name="Path 170" class="cls-1" d="M28.19,0H86.264c1.073.345,2.145.69,3.371,1.092C78.718,10.649,67.972,20.035,57.227,29.439,46.425,20.016,35.7,10.63,24.8,1.073,26.045.67,27.118.345,28.19,0Z" transform="translate(-20.07)"/>
    <path id="Path_171" data-name="Path 171" class="cls-1" d="M283.97,66.264c-.268.785-.517,1.59-.8,2.375-.1.249-.23.46-.4.8-7.834-8.772-15.629-17.487-23.463-26.26Q270.907,33.013,282.5,22.9a10.574,10.574,0,0,1,1.494,3.754Q283.96,46.45,283.97,66.264Z" transform="translate(-209.655 -18.514)"/>
    <path id="Path_172" data-name="Path 172" class="cls-1" d="M22.9,171.2c7.949-8.906,15.84-17.736,23.77-26.585,1.7,1.475,3.352,2.931,5,4.367.785.69,1.551,1.379,2.356,2.049a2.308,2.308,0,0,0,3.333-.019c2.433-2.107,4.846-4.233,7.336-6.417q11.866,13.274,23.751,26.585a8.942,8.942,0,0,1-4.176,1.437,10.382,10.382,0,0,1-1.092.019H28.167A9.556,9.556,0,0,1,22.9,171.2Z" transform="translate(-18.534 -116.904)"/>
    <path id="Path_173" data-name="Path 173" class="cls-1" d="M1.455,22.7C9.212,29.48,16.912,36.223,24.669,43,16.835,51.775,9.039,60.49,1.186,69.282A8.434,8.434,0,0,1,0,65.24c-.038-2.184-.019-4.348-.019-6.531V27.948A9.448,9.448,0,0,1,1.455,22.7Z" transform="translate(0 -18.352)"/>
  </g>
</svg>
