<svg xmlns="http://www.w3.org/2000/svg" viewBox="0 0 54.89 54.89"><defs><style>.cls-1{fill:#44b1de;}</style></defs><title>Asset 16</title><g id="Layer_2" data-name="Layer 2"><g id="Home_Page" data-name="Home Page"><path class="cls-1" d="M53.36,53.36a5.21,5.21,0,0,1-7.38,0L27.45,34.82l-7.38-7.38L1.53,8.91A5.22,5.22,0,0,1,8.91,1.53L27.45,20.07l7.38,7.38L53.36,46A5.21,5.21,0,0,1,53.36,53.36Z"/><path class="cls-1" d="M53.36,8.91,38.84,23.43,31.46,16,46,1.53a5.22,5.22,0,1,1,7.38,7.38Z"/><path class="cls-1" d="M16.05,31.46l7.38,7.38L8.91,53.36A5.22,5.22,0,0,1,1.53,46Z"/></g></g></svg>