<svg xmlns="http://www.w3.org/2000/svg" viewBox="2201 2477.809 44.759 44.759">
  <defs>
    <style>
      .cls-1 {
        fill: #44b1de;
      }
    </style>
  </defs>
  <g id="Group_258" data-name="Group 258" transform="translate(2201 2477.809)">
    <path id="Path_161" data-name="Path 161" class="cls-1" d="M22.214,20.337H17V27.8h5.233V44.759H8.325C3.246,44.759,0,41.491,0,36.39V8.347C0,3.268,3.246,0,8.347,0H36.39c5.145,0,8.369,3.246,8.369,8.435V36.368c0,5.167-3.224,8.391-8.391,8.391H29.456V27.889h7.309V20.4H29.39c0-1.214-.066-2.274.022-3.334.11-1.148.751-1.634,1.943-1.634h5.432V7.817a58.239,58.239,0,0,0-7.905.486c-3.268.6-6.05,4.262-6.359,7.795C22.368,17.444,22.324,18.835,22.214,20.337Z" transform="translate(0 0)"/>
  </g>
</svg>
