<svg xmlns="http://www.w3.org/2000/svg" viewBox="-565 4588 53.568 53.568">
  <defs>
    <style>
      .cls-1 {
        fill: #fff;
      }
    </style>
  </defs>
  <g id="Group_126" data-name="Group 126" transform="translate(-587 4755)">
    <path id="Path_161" data-name="Path 161" class="cls-1" d="M26.586,24.339H20.349v8.932h6.263v20.3H9.963C3.885,53.568,0,49.657,0,43.552V9.989C0,3.911,3.885,0,9.989,0H43.552C49.71,0,53.568,3.885,53.568,10.1v33.43c0,6.184-3.858,10.042-10.042,10.042H35.254V33.378H44V24.419H35.175c0-1.453-.079-2.722.026-3.991.132-1.374.9-1.956,2.326-1.956h6.5V9.355c-3.2.159-6.4,0-9.461.581-3.911.714-7.241,5.1-7.611,9.329C26.771,20.877,26.718,22.542,26.586,24.339Z" transform="translate(22 -167)"/>
  </g>
</svg>
