<svg xmlns="http://www.w3.org/2000/svg" viewBox="-660.701 2491.94 110.461 130.133"><defs><style>.a{fill:#44b1de;}</style></defs><g transform="translate(-660.701 2491.94)"><g transform="translate(43.544 50.268)"><path class="a" d="M96.166,83.2c-12.372-2.969-27.961-9.9-36.374-18.311C52.369,57.47,43.956,47.078,44.2,35.448a12.1,12.1,0,0,1,5.939-9.9,13.055,13.055,0,0,1,8.166-1.237c6.928,1.237,10.145,6.681,13.609,12.125a59.2,59.2,0,0,0,3.217,5.2c7.423,11.382,17.321,22.765,29.2,29.445.247.247.495.495.247.742s-.495.247-.99.247c-12.125-6.681-22.27-18.311-29.94-29.94a59.2,59.2,0,0,1-3.217-5.2C67.215,31.489,64,26.54,58.06,25.3a10.884,10.884,0,0,0-6.928.99A11.454,11.454,0,0,0,45.688,35.2c-.495,11.382,7.671,21.28,15.094,28.456,8.166,8.166,24.5,16.579,35.879,17.816.247,0,.742.247.495.742,0,.247-.247.495-.742.495C96.413,83.2,96.413,83.2,96.166,83.2Z" transform="translate(-44.198 -24.123)"/></g><g transform="translate(48.277 55.384)"><path class="a" d="M95.572,77.434c-10.393-2.722-21.28-8.66-29.94-14.352C58.456,58.133,52.27,49.72,48.064,41.8c-3.464-6.433-2.227-13.114,2.969-15.094a8.464,8.464,0,0,1,4.949-.247c4.206,1.237,7.176,5.939,8.908,9.4.495.99.742,1.732,1.237,2.722,2.474,5.444,4.206,9.4,8.908,13.362.495.495.99.742,1.237,1.237A104.356,104.356,0,0,0,86.912,61.6a.909.909,0,0,1,.247.742.753.753,0,0,1-.99,0,117.665,117.665,0,0,1-10.887-8.413c-.495-.495-.99-.742-1.237-1.237-4.949-4.206-6.681-8.166-9.4-13.857a29.03,29.03,0,0,1-1.237-2.722c-2.227-4.7-5.2-7.918-8.166-8.66a6.325,6.325,0,0,0-3.712,0c-3.959,1.485-5.691,6.928-2.227,13.609C53.26,48.978,59.2,56.9,66.127,61.845c8.166,5.691,19.3,11.877,29.2,14.1h.247c.247,0,.742.247.495.742.495.495,0,.742-.495.742Z" transform="translate(-46.111 -26.191)"/></g><g transform="translate(53.331 60.169)"><path class="a" d="M94.541,71.86h0c-16.084-6.186-34.147-14.6-42.56-30.683-3.464-6.433-4.454-9.65-3.464-11.382a3.03,3.03,0,0,1,2.227-1.485,3.433,3.433,0,0,1,2.227,0c1.98.742,3.217,3.217,5.2,7.423.742,1.485,1.485,3.464,2.474,5.444C67.322,55.034,83.406,62.7,97.015,67.9c.247.247.495.495.495.742-.247.247-.495.495-.99.247-14.1-5.2-30.435-13.362-37.364-27.466-.99-1.98-1.732-3.959-2.474-5.444C54.95,32.27,53.713,29.8,52.476,29.3c-.247,0-.495-.247-.99,0a2.645,2.645,0,0,0-1.237.742c-.742,1.237.495,4.454,3.464,10.393,8.166,15.589,25.981,23.754,41.57,29.94.247.247.495.495.495.742C95.283,71.86,94.788,72.108,94.541,71.86Z" transform="translate(-48.153 -28.125)"/></g><g transform="translate(38.299 46.28)"><path class="a" d="M75.289,103.4c-.247,0-.247,0-.495-.247s-.247-.742,0-.742a8.057,8.057,0,0,0,2.969-5.2c.742-6.186-5.691-13.857-7.671-16.084-1.237-1.485-2.722-2.722-3.959-3.959a107.835,107.835,0,0,1-10.393-10.64c-6.186-7.176-10.887-14.6-12.372-20.785C41.39,37.082,40.4,30.153,50.3,24.709a18.858,18.858,0,0,1,20.29,1.732c4.7,3.712,8.166,9.155,11.135,14.6.247.247.247.495.495.742A105.944,105.944,0,0,0,95.579,59.351l.742.742c3.712,3.959,6.928,7.918,10.393,7.176,2.722-.495,4.949-5.939,5.2-13.362,0-.247.247-.495.742-.495a.656.656,0,0,1,.742.742c-.247,6.186-2.227,13.362-6.186,14.352-4.454.99-7.918-3.217-11.877-7.671l-.742-.742C90.383,55.64,84.2,47.969,80.98,42.278c-.247-.247-.247-.495-.495-.742-2.969-5.2-6.433-10.64-10.887-14.1-3.217-2.474-10.887-5.691-18.063-1.485-9.4,5.2-8.413,11.382-6.433,20.043,1.485,5.939,5.939,13.362,12.125,20.538A138.144,138.144,0,0,0,67.371,76.919l3.959,3.959c2.722,2.969,8.66,10.64,7.918,17.073a9.289,9.289,0,0,1-3.464,6.186C75.537,103.4,75.289,103.4,75.289,103.4Z" transform="translate(-42.078 -22.512)"/></g><g transform="translate(67.696 100.338)"><path class="a" d="M63.464,69.205h-.247a.464.464,0,0,1,0-.742c2.227-2.722,1.732-4.949.742-8.66a2.231,2.231,0,0,1-.247-1.237c-1.485-5.939-4.7-10.887-9.4-13.114-.247-.247-.495-.495-.247-.742s.495-.495.99-.247c4.949,2.474,8.413,7.671,9.9,14.1A2.231,2.231,0,0,1,65.2,59.8c.99,3.712,1.485,6.433-.99,9.65A.909.909,0,0,0,63.464,69.205Z" transform="translate(-53.959 -44.359)"/></g><g transform="translate(78.089 105.534)"><path class="a" d="M71.375,53.489c-2.722-.495-5.444-1.98-8.413-3.712a37.38,37.38,0,0,0-4.454-2.227c-.247-.247-.495-.495-.247-.742s.495-.495.99-.247L63.7,48.788c3.959,2.227,7.671,4.454,10.64,3.217.247-.247.742,0,.99.247a.474.474,0,0,1-.247.742A9.618,9.618,0,0,1,71.375,53.489Z" transform="translate(-58.159 -46.459)"/></g><g transform="translate(79.985 110.647)"><path class="a" d="M68.266,53.659c-2.722-.247-5.939-1.98-9.155-4.206a.464.464,0,0,1,0-.742.753.753,0,0,1,.99,0c4.7,3.464,9.4,4.7,10.64,3.712a.753.753,0,0,1,.99,0c.247.247.247.742,0,.742A5.19,5.19,0,0,1,68.266,53.659Z" transform="translate(-58.925 -48.525)"/></g><g transform="translate(33.691 42.044)"><path class="a" d="M62.694,108.889A102.064,102.064,0,0,1,52.3,107.9c-.247,0-.495-.247-.495-.742,0-.247.247-.495.742-.495,10.64,1.485,15.341,1.485,20.29-2.227,5.2-4.207,3.959-9.9.99-13.362a67.186,67.186,0,0,0-5.939-5.939c-2.227-2.227-4.454-4.206-6.186-5.939-.247-.495-.495-.495-.742-.99-3.464-3.712-10.64-11.382-14.846-19.3-4.7-8.66-6.928-14.352-5.444-23.012C42.4,26.244,52.3,20.8,61.7,20.8c.495,0,.742.247.742.495s-.495.495-.742.495c-8.66,0-17.816,5.2-19.548,14.1-1.485,8.413.742,14.1,5.2,22.517,4.206,7.671,11.382,15.341,14.6,19.053.247.495.495.495.742.99,1.485,1.732,3.712,3.712,5.939,5.939a70.124,70.124,0,0,1,5.939,6.186c3.712,4.454,4.454,10.64-1.237,15.094A17.479,17.479,0,0,1,62.694,108.889Z" transform="translate(-40.216 -20.8)"/></g><g transform="translate(59.784 42.189)"><path class="a" d="M92.428,66c-1.98-.247-4.454-2.227-6.681-5.691-.742-.99-1.485-2.227-2.474-3.464-1.98-2.722-4.454-5.691-6.681-8.908-3.959-5.444-7.671-10.887-11.382-16.579a22.684,22.684,0,0,0-13.857-9.4c-.495,0-.742-.495-.495-.742s.742-.495.99-.247a23.906,23.906,0,0,1,14.6,10.145C70.158,36.8,73.87,42.241,77.829,47.437c2.227,2.969,4.7,5.939,6.681,8.66a23.21,23.21,0,0,1,2.474,3.464c3.217,4.454,5.444,4.949,5.939,4.949a1.361,1.361,0,0,0,1.237-.742c.99-1.485.495-4.7-2.227-7.918-.247-.247-.247-.742.247-.742.247-.247.742,0,.99.247,3.217,3.712,3.217,7.423,2.227,9.155a2.513,2.513,0,0,1-2.474,1.237C92.923,66.243,92.675,66.243,92.428,66Z" transform="translate(-50.761 -20.859)"/></g><g transform="translate(28.27 38.027)"><path class="a" d="M65.429,108.066a57.507,57.507,0,0,1-7.671-.742c-.247,0-.495-.495-.495-.742s.495-.495.742-.495c2.722.495,7.918.99,10.887.495,2.969-.742,5.939-3.217,5.2-7.671-.247-2.474-5.939-8.166-8.908-10.887l-.742-.742c-5.2-4.7-11.63-12.372-14.1-15.341a65.117,65.117,0,0,1-11.63-22.517c-1.98-6.681.495-17.321,5.691-22.27a32.37,32.37,0,0,1,19.053-7.918C68.893,18.74,77.059,21.462,83,25.173c5.2,3.464,7.918,7.918,10.393,12.372.742,1.237,1.237,2.474,1.98,3.712,2.722,4.7,8.413,11.877,12.619,17.568a33.657,33.657,0,0,1,2.969,4.206.474.474,0,0,1-.247.742c-.247.247-.742,0-.99-.247-.742-1.237-1.98-2.722-2.969-4.206-4.206-5.691-9.9-12.867-12.867-17.568L91.658,38.04c-2.722-4.7-5.2-8.66-10.145-11.877C76.069,22.7,68.151,20.224,63.2,20.472a29.711,29.711,0,0,0-17.816,7.671c-4.7,4.454-7.176,14.846-5.444,21.28a63.43,63.43,0,0,0,11.382,22.27c2.474,2.969,8.908,10.393,13.857,15.094l.742.742c4.454,4.206,8.908,8.908,9.155,11.63a7.628,7.628,0,0,1-6.186,8.908A15.8,15.8,0,0,0,65.429,108.066Z" transform="translate(-38.025 -19.176)"/></g><g transform="translate(81.161 117.009)"><path class="a" d="M59.895,57.292h0c-.495,0-.495-.495-.495-.742q.742-4.083,2.969-5.2a5.187,5.187,0,0,1,4.206.495c.247.247.495.495.247.742-.247.742-.495.742-.99.495a3.463,3.463,0,0,0-2.969-.495c-1.237.495-1.98,1.98-2.474,4.206C60.39,57.292,60.142,57.539,59.895,57.292Z" transform="translate(-59.4 -51.096)"/></g><g transform="translate(52.705 34.338)"><path class="a" d="M98.13,58.3h0C89.223,55.085,84.769,44.2,80.81,36.527a24.444,24.444,0,0,0-2.227-3.712c-6.186-9.9-18.558-14.352-29.94-13.857h0c-.495,0-.742-.247-.742-.495s.247-.495.742-.742c12.125-.495,25.239,4.206,31.672,14.6.742.99,1.237,2.227,2.227,3.712,3.712,7.176,8.66,18.805,16.084,21.032h0c1.732.247,3.712-.495,5.691-2.474a.753.753,0,0,1,.99,0c.247.247.495.495.247.742Q101.471,59.044,98.13,58.3Z" transform="translate(-47.9 -17.686)"/></g><g transform="translate(23.62 35.363)"><path class="a" d="M50.137,76.5a.909.909,0,0,1-.742-.247c-7.671-11.135-17.073-26.971-11.63-40.828A28.689,28.689,0,0,1,59.045,18.1c.495,0,.99,0,.99.495.247.247-.247.742-.495.742-9.155,1.98-16.826,7.671-20.29,16.579-5.2,13.114,3.959,28.951,11.63,39.59a.474.474,0,0,1-.247.742C50.384,76.5,50.384,76.5,50.137,76.5Z" transform="translate(-36.146 -18.1)"/></g><g transform="translate(39.983 95.637)"><path class="a" d="M44.841,75.471h-.247c-.247-.247-.495-.495-.247-.742,1.485-3.464,3.464-5.691,5.691-6.433,1.98-.742,3.959-.247,6.186,0,2.722.495,5.2.742,6.681-.742,1.98-1.98-1.237-5.444-3.712-8.166l-.99-.99-5.2-5.2c-3.959-3.712-8.166-7.423-10.145-9.9a.474.474,0,0,1,.247-.742c.247-.247.742,0,.99.247,1.732,2.474,6.186,6.186,9.9,9.9,1.732,1.732,3.712,3.464,5.2,5.2l.99.99c2.722,2.969,6.433,6.928,3.464,9.65-1.98,1.98-4.949,1.485-7.918.99-1.98-.247-3.959-.495-5.444,0-1.98.742-3.464,2.474-4.949,5.691C45.088,75.471,45.088,75.471,44.841,75.471Z" transform="translate(-42.759 -42.459)"/></g><g transform="translate(39.277)"><path class="a" d="M80.15,8.984h-.495C68.768,4.53,56.148,3.788,44.519,6.262a.909.909,0,0,0-.742.247c-.495,0-.99,0-1.237-.495-.247-.247.247-.742.742-.742.247,0,.247,0,.495-.247C56.4,3.293,68.52,2.8,80.645,7.747c.495.247.495.495.247.742C80.893,8.984,80.645,8.984,80.15,8.984Z" transform="translate(-42.473 -3.808)"/></g><g transform="translate(25.819 3.453)"><path class="a" d="M97.325,13.855H96.83c-17.568-7.918-39.343-10.64-58.4-2.227-.495.247-.99.247-1.237-.247-.247-.247-.247-.742.247-.742C56.992,1.73,79.262,4.7,97.82,12.865c.495.247.495.495.247.742A.909.909,0,0,1,97.325,13.855Z" transform="translate(-37.034 -5.204)"/></g><g transform="translate(17.158 7.403)"><path class="a" d="M110.156,19.419c-.247,0-.247,0-.495-.247C98.279,13.481,86.649,8.285,73.535,7.79,61.163,7.542,48.048,9.769,37.161,16.2a22.3,22.3,0,0,1-2.227,1.237,1.1,1.1,0,0,1-1.237,0c-.247-.247-.247-.742.247-.742a10.03,10.03,0,0,0,2.227-1.237C47.8,8.78,60.915,6.8,74.03,6.8c12.867,0,25.734,5.444,37.116,11.63.495.247.495.495.247.742A2.231,2.231,0,0,1,110.156,19.419Z" transform="translate(-33.534 -6.8)"/></g><g transform="translate(11.692 12.599)"><path class="a" d="M32.253,22.262a.909.909,0,0,1-.742-.247.464.464,0,0,1,0-.742A66.166,66.166,0,0,1,58.234,8.9c.495,0,.99,0,1.237.495.247.247-.247.742-.495.742-9.4,1.98-18.063,6.433-25.981,12.125Z" transform="translate(-31.325 -8.9)"/></g><g transform="translate(43.236 10.696)"><path class="a" d="M78.781,13.746h-.495a60.635,60.635,0,0,0-33.157-3.464c-.495,0-.99,0-.99-.495-.247-.247.247-.742.742-.742,10.887-1.98,24.5-.742,34.642,3.712.495.247.495.495.247.742A1.87,1.87,0,0,1,78.781,13.746Z" transform="translate(-44.073 -8.131)"/></g><g transform="translate(81.408 16.95)"><path class="a" d="M78.305,22.638a.864.864,0,0,1-.495-.247c-3.959-3.959-14.846-9.65-17.816-10.64-.495-.247-.495-.495-.495-.742a1.088,1.088,0,0,1,1.237-.247c2.474.99,13.857,6.681,18.311,11.135.247.247.247.742-.247.742A.343.343,0,0,1,78.305,22.638Z" transform="translate(-59.5 -10.659)"/></g><g transform="translate(6.148 15.009)"><path class="a" d="M128.841,34.187a.864.864,0,0,1-.495-.247,93.2,93.2,0,0,0-27.218-18.558c-11.382-4.949-25.981-5.691-38.106-2.969-11.877,2.474-23.259,9.155-32.415,17.568a1.854,1.854,0,0,1-1.237.247c-.247-.247-.495-.495,0-.742,9.4-8.413,20.785-15.341,33.157-18.063,12.619-2.722,27.466-1.98,39.59,3.217a88.075,88.075,0,0,1,27.713,19.053c.247.247.247.742-.247.742C129.336,34.187,129.089,34.435,128.841,34.187Z" transform="translate(-29.085 -9.874)"/></g><g transform="translate(3.302 19.243)"><path class="a" d="M132.517,39.335c-.247,0-.495,0-.495-.247l-2.227-2.227c-9.65-9.65-21.032-19.053-33.9-22.27-13.362-3.217-27.218-3.217-39.838,2.227C45.913,21.272,37,27.458,29.829,36.614a.242.242,0,0,1-.247.247,1.6,1.6,0,0,1-1.237.495c-.495-.247-.495-.495-.247-.742a.242.242,0,0,1,.247-.247c7.176-8.908,16.084-16.331,26.971-20.29A69.589,69.589,0,0,1,96.638,13.6C110,16.818,121.382,26.469,131.28,36.366l2.227,2.227c.247.247.247.742-.247.742Z" transform="translate(-27.934 -11.585)"/></g><g transform="translate(18.906 30.103)"><path class="a" d="M72.246,104.87c-.247,0-.247,0-.495-.247l-.742-.742A277.265,277.265,0,0,1,50.224,82.847C44.038,75.672,39.089,68,36.367,58.6c-2.722-9.155-2.474-12.125-1.237-18.311,0-.495.247-.495.247-.99,2.969-11.135,14.1-20.29,24.5-22.27,10.64-1.98,21.527-1.485,31.672,4.206,7.918,4.454,12.372,8.908,15.589,15.836a22.883,22.883,0,0,0,1.237,2.474c2.227,4.949,6.186,14.352,10.392,15.094h0c1.485.247,3.217-.742,4.949-2.722a.753.753,0,0,1,.99,0c.247.247.495.495.247.742-2.227,2.474-4.206,3.712-6.433,3.217h0c-5.2-.742-8.908-9.9-11.63-15.836a22.991,22.991,0,0,0-1.237-2.474c-3.217-6.681-7.423-11.135-15.094-15.341a44.016,44.016,0,0,0-30.188-3.959c-10.393,2.474-20.538,10.64-23.507,21.28,0,.495-.247.495-.247.99-1.485,5.939-1.732,8.66.99,17.816A61.512,61.512,0,0,0,51.214,82.1c6.186,7.176,13.609,14.1,20.538,20.785l.742.742c.247.247.247.742,0,.742C72.494,104.87,72.494,104.87,72.246,104.87Z" transform="translate(-34.24 -15.974)"/></g><g transform="translate(1.075 22.67)"><path class="a" d="M131.122,51.4a.864.864,0,0,1-.495-.247c-.247-.247-.247-.742.247-.742,1.485-.742,2.474-1.485,2.722-2.722.495-2.227-.742-6.928-11.135-15.341-1.237-.99-2.227-1.98-3.217-2.722-3.712-3.217-7.176-5.691-14.6-9.65-7.671-3.959-16.826-6.186-25.239-5.444-9.9.742-19.8,2.722-28.7,8.166-8.66,5.444-16.331,13.609-22.27,22.022-.247.247-.742.495-.99.247-.495,0-.495-.495-.247-.742A84.747,84.747,0,0,1,49.714,21.7c8.66-5.444,19.3-8.166,29.693-8.66a51.783,51.783,0,0,1,26.476,5.691,80.084,80.084,0,0,1,14.846,9.9,31.344,31.344,0,0,1,3.217,2.722c8.66,7.176,12.125,12.867,11.382,16.331-.247,1.485-1.485,2.722-3.464,3.464A1.915,1.915,0,0,1,131.122,51.4Z" transform="translate(-27.034 -12.97)"/></g><g transform="translate(21.489 26.95)"><path class="a" d="M36.065,27.567H35.57c-.247-.247-.495-.495,0-.742,8.66-7.671,19.3-11.382,30.93-12.125.495,0,.99.247.99.495a.79.79,0,0,1-.742.742c-10.887.99-21.527,4.454-29.94,11.877C36.56,27.319,36.313,27.567,36.065,27.567Z" transform="translate(-35.285 -14.7)"/></g><g transform="translate(58.643 26.703)"><path class="a" d="M95.829,53.943h0c-2.969-.495-4.454-4.949-6.186-9.155-.247-.495-.247-.99-.495-1.485C86.674,37.117,84.2,31.179,77.271,26.477c-7.918-5.444-16.084-10.145-26.229-10.64a.656.656,0,0,1-.742-.742c0-.247.495-.495.99-.495,10.145.495,19.548,4.949,27.466,11.135,7.176,5.444,9.9,10.887,12.372,17.321.247.495.247.99.495,1.485,1.237,3.217,2.722,7.918,4.7,8.166h0c.495,0,1.732-.247,3.712-2.474a.753.753,0,0,1,.99,0c.247.247.495.495.247.742C99.046,53.2,97.561,54.191,95.829,53.943Z" transform="translate(-50.3 -14.6)"/></g><g transform="translate(0 42.044)"><path class="a" d="M27.59,43.07h-.495c-.495,0-.495-.495-.495-.742,3.959-8.413,10.393-15.341,17.321-21.28a1.854,1.854,0,0,1,1.237-.247c.247.247.495.495,0,.742-6.681,5.939-13.114,12.867-17.073,21.032A.532.532,0,0,1,27.59,43.07Z" transform="translate(-26.6 -20.8)"/></g><g transform="translate(0.645 45.509)"><path class="a" d="M27.7,51.893h-.247c-.495,0-.742-.247-.495-.742,2.969-11.877,10.393-20.785,18.558-28.7a1.854,1.854,0,0,1,1.237-.247c.247.247.495.495,0,.742C38.34,30.366,31.164,40.016,28.442,51.151,28.2,51.645,27.948,51.645,27.7,51.893Z" transform="translate(-26.861 -22.2)"/></g><g transform="translate(13.883 54.066)"><path class="a" d="M71.033,91.085c-.247,0-.247,0-.495-.247A118.469,118.469,0,0,1,57.176,78.713l-1.485-1.485C49.011,70.8,42.825,63.867,38.618,55.7c-4.454-8.413-9.155-21.28-4.454-29.693.247-.247.742-.495.99-.247.495.247.495.495.247.742-4.7,8.413,0,20.785,4.206,28.7,4.206,8.166,10.145,15.094,16.826,21.28l1.485,1.485A132.292,132.292,0,0,0,71.033,89.848a.464.464,0,0,1,0,.742C71.528,90.838,71.28,91.085,71.033,91.085Z" transform="translate(-32.21 -25.659)"/></g><g transform="translate(2.656 61.345)"><path class="a" d="M28.482,51.612h0c-.495,0-.99-.247-.742-.495.495-5.939,2.969-11.382,5.2-16.084a63.273,63.273,0,0,0,2.722-5.939,1.286,1.286,0,0,1,.99-.495c.495,0,.742.495.495.742a63.273,63.273,0,0,1-2.722,5.939c-2.227,4.949-4.454,9.9-5.2,15.836C28.976,51.365,28.729,51.612,28.482,51.612Z" transform="translate(-27.673 -28.6)"/></g><g transform="translate(10.393 70.5)"><path class="a" d="M67.421,80.8c-.247,0-.247,0-.495-.247A132.277,132.277,0,0,1,42.182,56.8C36.739,50.116,31.79,41.95,30.8,33.042q0-.371.742-.742c.495,0,.742.247.742.495.742,8.66,5.691,16.579,11.135,23.259A128.508,128.508,0,0,0,67.669,79.561a.464.464,0,0,1,0,.742C67.916,80.8,67.669,80.8,67.421,80.8Z" transform="translate(-30.8 -32.3)"/></g><g transform="translate(7.608 76.933)"><path class="a" d="M65.369,78.944h-.247c-4.7-2.474-11.877-9.65-15.341-12.867l-.495-.495A98.391,98.391,0,0,1,36.418,50.241c-4.7-6.681-7.176-9.9-6.681-14.846,0-.247.495-.495.742-.495.495,0,.742.247.742.495-.247,4.7,1.732,7.671,6.433,14.352A110.216,110.216,0,0,0,50.275,64.84l.495.495c3.464,3.217,10.145,10.393,14.846,12.619.247.247.495.495.247.742C65.863,78.944,65.616,78.944,65.369,78.944Z" transform="translate(-29.675 -34.9)"/></g><g transform="translate(4.652 84.604)"><path class="a" d="M35.953,57.3a.909.909,0,0,1-.742-.247c-6.928-9.155-7.671-14.1-5.939-18.558a1.286,1.286,0,0,1,.99-.495c.495,0,.495.495.495.742-1.732,4.206-.99,8.66,5.691,17.568a.474.474,0,0,1-.247.742C36.2,57.3,36.2,57.3,35.953,57.3Z" transform="translate(-28.48 -38)"/></g><g transform="translate(8.811 90.543)"><path class="a" d="M61.93,73.557h-.247C54.26,69.845,47.826,63.412,42.135,57.473c-5.444-5.691-9.9-11.63-11.877-16.331-.247-.247,0-.742.495-.742a1.488,1.488,0,0,1,.99.247c1.732,4.7,6.186,10.393,11.63,16.084C49.063,62.67,55.5,69.1,62.425,72.567c.247.247.495.495.247.742C62.425,73.31,62.178,73.557,61.93,73.557Z" transform="translate(-30.161 -40.4)"/></g><g transform="translate(14.002 106.029)"><path class="a" d="M56.115,67.051h-.247C46.713,62.845,37.557,55.916,32.361,47.5a.474.474,0,0,1,.247-.742c.247-.247.742,0,.99.247,5.2,8.166,14.1,14.846,23.012,19.053.247.247.495.495.247.742A.909.909,0,0,1,56.115,67.051Z" transform="translate(-32.259 -46.659)"/></g></g></svg>