<svg xmlns="http://www.w3.org/2000/svg" viewBox="0 0 44.39 52.56"><defs><style>.cls-1{fill:#44b1de;}</style></defs><title>Asset 11</title><g id="Layer_2" data-name="Layer 2"><g id="Home_Page" data-name="Home Page"><path class="cls-1" d="M38.53,44.11c-5-1.22-11.26-4-14.7-7.37-3-3-6.45-7.16-6.26-11.88a4.71,4.71,0,0,1,5.7-4.51c2.77.5,4.12,2.65,5.45,4.93.4.69.81,1.41,1.26,2.09,3,4.6,7,9.21,11.85,11.9a.24.24,0,0,1,.1.34.3.3,0,0,1-.38.07c-4.91-2.74-9-7.41-12.12-12.1-.46-.69-.87-1.42-1.29-2.11-1.28-2.16-2.57-4.21-5-4.65a4.05,4.05,0,0,0-2.76.42,4.49,4.49,0,0,0-2.15,3.64c-.2,4.58,3.12,8.63,6.06,11.55,3.34,3.31,9.87,6.66,14.48,7.23a.28.28,0,0,1,.25.27.26.26,0,0,1-.29.21Z"/><path class="cls-1" d="M39.43,43a42.93,42.93,0,0,1-12.07-5.78c-2.94-2-5.38-5.38-7.06-8.6-1.36-2.61-.87-5.35,1.24-6.11a3.15,3.15,0,0,1,2-.05c1.72.52,2.94,2.36,3.63,3.8l.5,1.07c1,2.2,1.72,3.79,3.61,5.42l.54.48a33.74,33.74,0,0,0,4.32,3.37.22.22,0,0,1,.05.34.32.32,0,0,1-.4,0,38.67,38.67,0,0,1-4.4-3.42l-.53-.47c-2-1.7-2.72-3.34-3.76-5.6-.16-.34-.32-.69-.5-1.06-.93-1.91-2.12-3.16-3.29-3.52a2.33,2.33,0,0,0-1.51,0c-1.57.57-2.32,2.84-.95,5.49a23.39,23.39,0,0,0,6.84,8.4c3.31,2.28,7.84,4.82,11.79,5.69h.07a.24.24,0,1,1-.07.48Z"/><path class="cls-1" d="M40.25,42l-.06,0c-6.46-2.46-13.74-5.89-17.11-12.34-1.37-2.62-1.8-3.85-1.42-4.55a1.35,1.35,0,0,1,.87-.61,1.49,1.49,0,0,1,.92,0c.81.28,1.3,1.3,2.06,3,.29.65.62,1.4,1,2.21,2.74,5.58,9.16,8.73,14.73,10.84a.25.25,0,0,1,.16.32.29.29,0,0,1-.36.12C35.33,38.8,28.8,35.54,26,29.83c-.4-.81-.74-1.58-1-2.23-.66-1.45-1.18-2.5-1.75-2.7a.67.67,0,0,0-.43,0,.79.79,0,0,0-.51.35c-.29.54.16,1.79,1.4,4.18C26.91,35.76,34.12,39,40.4,41.52a.24.24,0,0,1,.15.32A.27.27,0,0,1,40.25,42Z"/><path class="cls-1" d="M28.77,51.3a.25.25,0,0,1-.18-.09.24.24,0,0,1,0-.34,3.11,3.11,0,0,0,1.23-2.14c.29-2.53-2.29-5.65-3.12-6.53-.54-.57-1.06-1.07-1.58-1.55A50.81,50.81,0,0,1,21,36.39c-2.5-2.91-4.41-5.94-5-8.44-.83-3.52-1.24-6.25,2.82-8.54a7.73,7.73,0,0,1,8.2.66,19.4,19.4,0,0,1,4.5,5.9l.19.34a44.77,44.77,0,0,0,5.4,7.09l.29.32c1.48,1.62,2.79,3.18,4.19,2.86,1.09-.25,2-2.44,2.13-5.36A.26.26,0,0,1,44,31a.29.29,0,0,1,.29.27c-.11,2.54-.92,5.41-2.55,5.77-1.8.4-3.22-1.29-4.83-3.05l-.3-.32a45.82,45.82,0,0,1-5.5-7.19l-.19-.34a19.14,19.14,0,0,0-4.4-5.75,6.93,6.93,0,0,0-7.34-.61c-3.76,2.11-3.4,4.6-2.6,8.06.56,2.43,2.41,5.39,4.85,8.25a49.27,49.27,0,0,0,4.14,4.22c.52.49,1,1,1.59,1.57,1.12,1.17,3.54,4.26,3.22,6.9a3.59,3.59,0,0,1-1.42,2.46A.26.26,0,0,1,28.77,51.3Z"/><path class="cls-1" d="M31.11,50.56a.25.25,0,0,1-.13,0,.24.24,0,0,1,0-.34c.86-1.1.68-2,.33-3.49l-.13-.55a7.81,7.81,0,0,0-3.77-5.34.23.23,0,0,1-.11-.33.3.3,0,0,1,.38-.09,8.31,8.31,0,0,1,4,5.66l.13.55c.36,1.52.57,2.61-.44,3.89A.25.25,0,0,1,31.11,50.56Z"/><path class="cls-1" d="M36.83,45.39a10.7,10.7,0,0,1-3.37-1.48,16.59,16.59,0,0,0-1.78-.9.24.24,0,0,1-.14-.32.28.28,0,0,1,.36-.12,19.36,19.36,0,0,1,1.84.93c1.56.88,3.11,1.83,4.31,1.26a.29.29,0,0,1,.36.11.23.23,0,0,1-.1.33A2.55,2.55,0,0,1,36.83,45.39Z"/><path class="cls-1" d="M36,46.71A8.66,8.66,0,0,1,32.35,45a.23.23,0,0,1,0-.34.28.28,0,0,1,.37,0c1.91,1.43,3.82,1.86,4.33,1.49a.28.28,0,0,1,.37,0,.23.23,0,0,1,0,.34A1.86,1.86,0,0,1,36,46.71Z"/><path class="cls-1" d="M22.58,52.56a35.65,35.65,0,0,1-4.23-.38.24.24,0,1,1,.06-.48c4.32.62,6.21.64,8.16-.92,2.11-1.69,1.6-4,.38-5.43A30.52,30.52,0,0,0,24.6,42.9c-.93-.88-1.84-1.71-2.47-2.42l-.35-.39a42.48,42.48,0,0,1-6-7.79c-1.86-3.49-2.84-5.82-2.2-9.35.7-3.89,4.71-6.14,8.49-6.14.18,0,.34.11.34.24s-.15.24-.34.24c-3.52,0-7.2,2.11-7.86,5.7-.63,3.41.31,5.69,2.11,9.11a41.66,41.66,0,0,0,5.92,7.69l.35.4c.6.69,1.5,1.51,2.42,2.38A30.39,30.39,0,0,1,27.37,45a4.08,4.08,0,0,1-.48,6.1A6.3,6.3,0,0,1,22.58,52.56Z"/><path class="cls-1" d="M41,35.27A5,5,0,0,1,38.26,33c-.29-.4-.64-.87-1-1.39-.85-1.1-1.84-2.33-2.75-3.55-1.62-2.18-3.14-4.36-4.61-6.66a9.29,9.29,0,0,0-5.58-3.85c-.17,0-.26-.19-.2-.31a.38.38,0,0,1,.43-.14,9.85,9.85,0,0,1,5.93,4.11c1.46,2.29,3,4.45,4.56,6.63.9,1.21,1.88,2.44,2.72,3.54.4.52.76,1,1,1.4,1.31,1.84,2.16,2,2.39,2a.58.58,0,0,0,.53-.29c.38-.59.22-1.89-.87-3.21a.21.21,0,0,1,.08-.33.36.36,0,0,1,.42.08c1.29,1.54,1.35,3,.9,3.72a1.14,1.14,0,0,1-1,.52Z"/><path class="cls-1" d="M22.46,51.2a18.38,18.38,0,0,1-3.14-.3.24.24,0,0,1-.19-.29.25.25,0,0,1,.29-.19,13.11,13.11,0,0,0,4.44.17A2.7,2.7,0,0,0,26,47.49c-.14-1-2.37-3.26-3.62-4.42L22,42.77a74.71,74.71,0,0,1-5.7-6.17,26.32,26.32,0,0,1-4.71-9.12c-.8-2.75.23-7,2.28-9a13.2,13.2,0,0,1,7.66-3.25,14.37,14.37,0,0,1,7.87,2.41,13.25,13.25,0,0,1,4.23,5c.27.47.54,1,.84,1.46,1.13,1.91,3.41,4.76,5.1,7.09.47.65.9,1.25,1.24,1.75a.21.21,0,0,1-.11.33.35.35,0,0,1-.41-.11c-.34-.5-.76-1.1-1.23-1.74-1.71-2.34-4-5.2-5.16-7.14-.3-.5-.58-1-.85-1.47A12.74,12.74,0,0,0,29,18a14,14,0,0,0-7.36-2.28,12.42,12.42,0,0,0-7.22,3.06c-1.92,1.79-2.93,6-2.19,8.56a25.67,25.67,0,0,0,4.57,9,73.19,73.19,0,0,0,5.63,6.12l.32.29c1.8,1.68,3.61,3.62,3.75,4.7A3.18,3.18,0,0,1,24,51.06,7,7,0,0,1,22.46,51.2Z"/><path class="cls-1" d="M32.92,49.77h0a.25.25,0,0,1-.21-.28,2.55,2.55,0,0,1,1.24-2.06,1.85,1.85,0,0,1,1.69.24.24.24,0,0,1,.09.33.26.26,0,0,1-.35.08,1.35,1.35,0,0,0-1.2-.2,2.16,2.16,0,0,0-1,1.7A.25.25,0,0,1,32.92,49.77Z"/><path class="cls-1" d="M41.48,30.27h0c-3.56-1.3-5.37-5.72-7-8.78-.31-.58-.61-1.11-.86-1.51-2.5-4-7.48-5.85-12.13-5.64h0c-.18,0-.33-.1-.34-.23s.13-.25.32-.26c4.85-.21,10.16,1.69,12.77,5.95.25.41.55.94.86,1.53,1.54,2.89,3.46,7.6,6.49,8.46h0a2.63,2.63,0,0,0,2.27-1,.36.36,0,0,1,.43,0,.22.22,0,0,1,.07.35A3.22,3.22,0,0,1,41.48,30.27Z"/><path class="cls-1" d="M15.16,37.84a.29.29,0,0,1-.26-.11C11.79,33.24,8,26.79,10.22,21.22a11.61,11.61,0,0,1,8.64-7,.38.38,0,0,1,.43.16c.05.13-.05.27-.23.3a11.11,11.11,0,0,0-8.22,6.67c-2.19,5.42,1.51,11.73,4.55,16.12a.23.23,0,0,1-.1.34Z"/><path class="cls-1" d="M16.9,52l-.11,0a.24.24,0,0,1-.13-.32A4.23,4.23,0,0,1,18.93,49a5.37,5.37,0,0,1,2.47,0c1.07.17,2.07.35,2.72-.27.82-.77-.47-2.22-1.46-3.26l-.36-.38c-.61-.64-1.35-1.38-2.09-2.08a51.69,51.69,0,0,1-4.1-4,.22.22,0,0,1,.08-.34.31.31,0,0,1,.39.06,49.93,49.93,0,0,0,4,4c.74.7,1.48,1.44,2.1,2.1l.36.38c1.12,1.18,2.58,2.84,1.43,3.92-.84.79-2,.58-3.15.4a5,5,0,0,0-2.22,0,3.78,3.78,0,0,0-2,2.32A.25.25,0,0,1,16.9,52Z"/><path class="cls-1" d="M31.06,2.06a.57.57,0,0,1-.18,0A24.6,24.6,0,0,0,16.61,1L16.35,1a.43.43,0,0,1-.46-.16c-.05-.13.06-.26.26-.3L16.4.51c5.15-.72,10-.94,14.87,1.11.18.07.23.23.13.34A.44.44,0,0,1,31.06,2.06Z"/><path class="cls-1" d="M34.71,4.87a.57.57,0,0,1-.18,0C27.43,1.6,18.63.52,11,3.94a.51.51,0,0,1-.51-.05c-.11-.11-.06-.26.12-.34,7.86-3.57,16.91-2.4,24.37.89.17.07.21.24.11.34A.44.44,0,0,1,34.71,4.87Z"/><path class="cls-1" d="M37.87,8A.53.53,0,0,1,37.69,8c-4.63-2.33-9.27-4.41-14.58-4.58A27.76,27.76,0,0,0,8.3,6.73l-.94.53a.48.48,0,0,1-.51,0c-.11-.1-.07-.26.09-.34l.92-.52c4.72-2.74,10-3.48,15.27-3.47s10.36,2.18,15,4.69c.16.09.2.24.09.35A.42.42,0,0,1,37.87,8Z"/><path class="cls-1" d="M5,10.45a.43.43,0,0,1-.29-.05.2.2,0,0,1,0-.35A28.29,28.29,0,0,1,15.52,5a.42.42,0,0,1,.46.15c.06.13-.05.27-.25.31a28.17,28.17,0,0,0-10.47,4.9A.47.47,0,0,1,5,10.45Z"/><path class="cls-1" d="M31.41,6.57a.54.54,0,0,1-.18,0A25.19,25.19,0,0,0,17.82,5.11a.41.41,0,0,1-.45-.16c-.06-.13.06-.27.25-.3a25.59,25.59,0,0,1,14,1.49c.17.07.22.23.11.34A.43.43,0,0,1,31.41,6.57Z"/><path class="cls-1" d="M40.45,11.68a.44.44,0,0,1-.25-.12c-1.61-1.61-6-3.85-7.17-4.32-.18-.07-.24-.22-.15-.33a.45.45,0,0,1,.49-.08c1,.41,5.64,2.7,7.39,4.48a.19.19,0,0,1-.07.34A.46.46,0,0,1,40.45,11.68Z"/><path class="cls-1" d="M42.77,15.87a.43.43,0,0,1-.24-.11,36.53,36.53,0,0,0-11-7.51A26.33,26.33,0,0,0,16.13,7,28.94,28.94,0,0,0,3.06,14.09a.47.47,0,0,1-.49.07.19.19,0,0,1,0-.34,30.07,30.07,0,0,1,13.4-7.26,27.22,27.22,0,0,1,16,1.3,36.17,36.17,0,0,1,11.2,7.66.2.2,0,0,1-.07.34A.43.43,0,0,1,42.77,15.87Z"/><path class="cls-1" d="M43.55,18.94a.41.41,0,0,1-.22-.11l-.94-.92c-3.91-3.87-8.46-7.74-13.71-9-5.41-1.27-11-1.31-16.1.93a26.26,26.26,0,0,0-10.6,8L1.87,18a.43.43,0,0,1-.46.11.2.2,0,0,1-.11-.33l.11-.13a25.36,25.36,0,0,1,10.87-8.2,27.53,27.53,0,0,1,16.65-1c5.37,1.26,10,5.2,14,9.16l.94.92a.2.2,0,0,1-.05.34A.42.42,0,0,1,43.55,18.94Z"/><path class="cls-1" d="M22.93,48a.27.27,0,0,1-.18-.08l-.3-.29A114.18,114.18,0,0,1,14,39.17a26.77,26.77,0,0,1-5.6-9.77C7.29,25.65,7.41,24.49,8,22l.09-.39a13.3,13.3,0,0,1,9.92-9c4.28-.76,8.66-.64,12.8,1.67a13.86,13.86,0,0,1,6.33,6.42c.14.29.3.64.48,1,.91,2,2.46,5.81,4.18,6.09h0c.62.1,1.29-.29,2-1.15a.36.36,0,0,1,.43,0,.22.22,0,0,1,.1.34,2.9,2.9,0,0,1-2.63,1.33h0c-2.1-.34-3.62-4-4.71-6.44-.17-.38-.33-.73-.47-1a13.48,13.48,0,0,0-6.13-6.19,17.26,17.26,0,0,0-12.19-1.58c-4.25,1-8.27,4.26-9.48,8.56l-.09.39c-.56,2.38-.68,3.51.41,7.16a26.2,26.2,0,0,0,5.46,9.62,110.89,110.89,0,0,0,8.34,8.43l.3.29a.23.23,0,0,1,0,.34A.26.26,0,0,1,22.93,48Z"/><path class="cls-1" d="M42.39,24.67a.37.37,0,0,1-.23-.13.21.21,0,0,1,.1-.33,1.58,1.58,0,0,0,1.07-1.13c.18-.91-.33-2.8-4.45-6.2l-1.35-1.12a29.45,29.45,0,0,0-5.88-3.92A19.08,19.08,0,0,0,21.41,9.61c-4,.34-8,1.11-11.55,3.34a32.91,32.91,0,0,0-9,8.88A.42.42,0,0,1,.44,22a.21.21,0,0,1-.14-.32A32.81,32.81,0,0,1,9.42,12.6a24.61,24.61,0,0,1,12-3.47A21,21,0,0,1,32,11.46a29.93,29.93,0,0,1,6,4l1.34,1.12c3.45,2.86,4.88,5.16,4.59,6.62a2,2,0,0,1-1.36,1.45A.4.4,0,0,1,42.39,24.67Z"/><path class="cls-1" d="M8.92,16a.42.42,0,0,1-.25,0,.2.2,0,0,1,0-.34,21.08,21.08,0,0,1,12.52-4.95c.21,0,.37.08.4.21s-.11.26-.3.27A21,21,0,0,0,9.15,15.91.42.42,0,0,1,8.92,16Z"/><path class="cls-1" d="M42,26.59h0c-1.2-.2-1.83-2-2.47-3.7l-.22-.59c-1-2.53-2-4.85-4.84-6.8-3.22-2.23-6.47-4.06-10.63-4.32-.19,0-.34-.13-.32-.26a.32.32,0,0,1,.38-.22,20.58,20.58,0,0,1,11.05,4.48,14.16,14.16,0,0,1,5,7l.22.59c.5,1.34,1.14,3.18,1.93,3.32h0c.23,0,.73-.05,1.53-1a.37.37,0,0,1,.44,0,.22.22,0,0,1,.1.34C43.37,26.31,42.69,26.7,42,26.59Z"/><path class="cls-1" d="M.36,25.92a.4.4,0,0,1-.16,0c-.16,0-.24-.17-.18-.3A27.92,27.92,0,0,1,7,17a.44.44,0,0,1,.47-.05.2.2,0,0,1,0,.34A28.39,28.39,0,0,0,.61,25.74.35.35,0,0,1,.36,25.92Z"/><path class="cls-1" d="M.54,30.29H.43A.23.23,0,0,1,.19,30c1.21-4.76,4.18-8.37,7.53-11.61a.43.43,0,0,1,.47-.05.2.2,0,0,1,0,.34c-3.38,3-6.31,6.91-7.44,11.38A.31.31,0,0,1,.54,30.29Z"/><path class="cls-1" d="M21.25,48.19a.27.27,0,0,1-.16-.06,45.38,45.38,0,0,1-5.35-4.85l-.58-.57A34.39,34.39,0,0,1,8.22,34c-1.82-3.41-3.74-8.6-1.78-12a.4.4,0,0,1,.43-.13.22.22,0,0,1,.15.32c-1.86,3.36,0,8.39,1.74,11.62a33.84,33.84,0,0,0,6.8,8.63l.58.58a48,48,0,0,0,5.28,4.8.24.24,0,0,1,0,.34A.26.26,0,0,1,21.25,48.19Z"/><path class="cls-1" d="M1.29,34.07H1.22c-.16,0-.29-.11-.27-.24A19.47,19.47,0,0,1,3,27.31c.39-.83.77-1.62,1.09-2.39a.36.36,0,0,1,.4-.18c.17,0,.26.16.2.3-.33.79-.72,1.57-1.11,2.41a19.07,19.07,0,0,0-2.07,6.39A.3.3,0,0,1,1.29,34.07Z"/><path class="cls-1" d="M18.93,48.07a.26.26,0,0,1-.16-.05,53.71,53.71,0,0,1-10-9.58c-2.22-2.73-4.19-6-4.61-9.63,0-.13.13-.24.28-.28a.28.28,0,0,1,.33.21c.34,3.45,2.31,6.74,4.47,9.41a52,52,0,0,0,9.81,9.48.23.23,0,0,1,0,.34A.27.27,0,0,1,18.93,48.07Z"/><path class="cls-1" d="M17.42,48.86a.26.26,0,0,1-.13,0c-1.94-1-4.76-3.87-6.18-5.22l-.23-.22a44.48,44.48,0,0,1-5.2-6.2c-1.94-2.67-2.86-4-2.7-6a.31.31,0,0,1,.32-.25.25.25,0,0,1,.28.24c-.14,1.88.68,3.12,2.59,5.77a43.56,43.56,0,0,0,5.1,6.13l.23.22c1.39,1.33,4.15,4.17,6,5.13a.24.24,0,0,1,.1.33A.26.26,0,0,1,17.42,48.86Z"/><path class="cls-1" d="M4.87,42a.28.28,0,0,1-.27-.1c-2.81-3.74-3.08-5.7-2.37-7.49a.33.33,0,0,1,.37-.18.22.22,0,0,1,.18.3c-.68,1.7-.41,3.46,2.28,7.09a.23.23,0,0,1-.09.34Z"/><path class="cls-1" d="M16.32,49.9a.25.25,0,0,1-.12,0c-3-1.46-5.58-4.06-7.95-6.54A23.89,23.89,0,0,1,3.46,36.7a.25.25,0,0,1,.18-.32.29.29,0,0,1,.36.14A22.79,22.79,0,0,0,8.67,43c2.3,2.43,4.85,5,7.75,6.43a.25.25,0,0,1,.12.32A.25.25,0,0,1,16.32,49.9Z"/><path class="cls-1" d="M15.23,51.06a.25.25,0,0,1-.12,0,23,23,0,0,1-9.54-7.87.24.24,0,0,1,.12-.33.29.29,0,0,1,.37.09,22.23,22.23,0,0,0,9.26,7.67.24.24,0,0,1,.12.32A.25.25,0,0,1,15.23,51.06Z"/><path class="cls-1" d="M41.65,23.12a.29.29,0,0,1-.26-.24,5.17,5.17,0,0,0-1.52-3.16.19.19,0,0,1,.09-.3.39.39,0,0,1,.42.09A5.46,5.46,0,0,1,42,22.92c0,.12-.14.21-.3.2Z"/></g></g></svg>