<svg id="Group_376" data-name="Group 376" xmlns="http://www.w3.org/2000/svg" viewBox="0 0 34.015 49.983">
  <defs>
    <style>
      .cls-1 {
        fill: #a0a0a0;
      }
    </style>
  </defs>
  <g id="Group_273" data-name="Group 273">
    <path id="Path_215" data-name="Path 215" class="cls-1" d="M27.151,47.457H6.924A1.2,1.2,0,0,1,5.71,46.283V39.235H1.215A1.2,1.2,0,0,1,0,38.06V22.084a8.657,8.657,0,0,1,2.673-6.226A9.206,9.206,0,0,1,5.649,13.92a8.894,8.894,0,0,1,3.462-.7V7.635A7.754,7.754,0,0,1,17.007,0a7.754,7.754,0,0,1,7.9,7.635v5.58a8.676,8.676,0,0,1,3.462.7,9.907,9.907,0,0,1,2.976,1.938,8.657,8.657,0,0,1,2.673,6.226V38.06A1.2,1.2,0,0,1,32.8,39.235H28.305v6.989A1.159,1.159,0,0,1,27.151,47.457ZM9.111,14.331a7.76,7.76,0,0,0-3.037.587,8.471,8.471,0,0,0-2.612,1.645,7.568,7.568,0,0,0-2.369,5.462V38l5.71.059v8.105l20.287.059a.058.058,0,0,0,.061-.059V38.119H32.8l.061-16.093a7.689,7.689,0,0,0-4.981-7.107,7.76,7.76,0,0,0-3.037-.587H23.628l.061-.587V7.635a6.715,6.715,0,0,0-13.424,0v6.05l.061.587H9.111Z"/>
    <rect id="Rectangle_130" data-name="Rectangle 130" class="cls-1" width="1.154" height="17.679" transform="translate(5.71 21.673)"/>
    <rect id="Rectangle_131" data-name="Rectangle 131" class="cls-1" width="1.154" height="17.679" transform="translate(27.212 21.673)"/>
    <path id="Path_216" data-name="Path 216" class="cls-1" d="M7.3,68.642H2.315A1.2,1.2,0,0,1,1.1,67.467V65H7.3v3.642ZM2.254,66.057v1.351l3.887.059v-1.41Z" transform="translate(-0.432 -26.823)"/>
    <path id="Path_217" data-name="Path 217" class="cls-1" d="M49.781,68.642H44.8V65H51v2.467A1.239,1.239,0,0,1,49.781,68.642Zm-3.827-1.116h3.827a.058.058,0,0,0,.061-.059V66.116H45.954Z" transform="translate(-17.588 -26.823)"/>
    <path id="Path_218" data-name="Path 218" class="cls-1" d="M30.605,82.542H11.715A1.2,1.2,0,0,1,10.5,81.367V78.9H31.881v2.467A1.3,1.3,0,0,1,30.605,82.542ZM11.654,80.016v1.351l18.951.059a.058.058,0,0,0,.061-.059V80.016Z" transform="translate(-4.122 -32.559)"/>
    <rect id="Rectangle_132" data-name="Rectangle 132" class="cls-1" width="1.154" height="32.539" transform="translate(16.461 13.803)"/>
    <path id="Path_219" data-name="Path 219" class="cls-1" d="M27.236,17.75H22.073A2.653,2.653,0,0,1,19.4,15.166V9.41a5.287,5.287,0,0,1,10.569,0v5.7A2.717,2.717,0,0,1,27.236,17.75ZM24.684,5.416a4.068,4.068,0,0,0-4.13,3.994v5.7a1.518,1.518,0,0,0,1.519,1.468h5.163a1.518,1.518,0,0,0,1.519-1.468V9.41A4.054,4.054,0,0,0,24.684,5.416Z" transform="translate(-7.616 -1.774)"/>
    <rect id="Rectangle_133" data-name="Rectangle 133" class="cls-1" width="1.154" height="7.518" transform="translate(19.073 15.388)"/>
    <rect id="Rectangle_134" data-name="Rectangle 134" class="cls-1" width="1.154" height="7.518" transform="translate(13.849 15.388)"/>
    <rect id="Rectangle_135" data-name="Rectangle 135" class="cls-1" width="5.224" height="1.116" transform="translate(22.596 35.652)"/>
    <rect id="Rectangle_136" data-name="Rectangle 136" class="cls-1" width="5.224" height="1.116" transform="translate(6.256 35.652)"/>
  </g>
</svg>
