<svg id="Group_274" data-name="Group 274" xmlns="http://www.w3.org/2000/svg" viewBox="0 0 41.307 62.772">
  <defs>
    <style>
      .cls-1 {
        fill: #a0a0a0;
      }
    </style>
  </defs>
  <g id="Group_273" data-name="Group 273">
    <path id="Path_215" data-name="Path 215" class="cls-1" d="M32.972,59.6H8.409a1.48,1.48,0,0,1-1.475-1.475V49.273H1.475A1.48,1.48,0,0,1,0,47.8V27.735A11.176,11.176,0,0,1,6.86,17.482a10.494,10.494,0,0,1,4.2-.885V9.589a9.589,9.589,0,0,1,19.178,0V16.6a10.238,10.238,0,0,1,4.2.885,12,12,0,0,1,3.614,2.434,11.053,11.053,0,0,1,3.246,7.819V47.8a1.48,1.48,0,0,1-1.475,1.475H34.373v8.778A1.436,1.436,0,0,1,32.972,59.6ZM11.064,18a9.152,9.152,0,0,0-3.688.738A10.246,10.246,0,0,0,4.2,20.8a9.66,9.66,0,0,0-2.877,6.86V47.724l6.934.074V57.977l24.637.074a.072.072,0,0,0,.074-.074V47.872h6.86l.074-20.211a9.66,9.66,0,0,0-2.877-6.86,9.078,9.078,0,0,0-3.172-2.065A9.152,9.152,0,0,0,30.169,18H28.694l.074-.738V9.589a8.151,8.151,0,1,0-16.3,0v7.6l.074.738H11.064Z"/>
    <rect id="Rectangle_130" data-name="Rectangle 130" class="cls-1" width="1.401" height="22.203" transform="translate(6.934 27.218)"/>
    <rect id="Rectangle_131" data-name="Rectangle 131" class="cls-1" width="1.401" height="22.203" transform="translate(33.046 27.218)"/>
    <path id="Path_216" data-name="Path 216" class="cls-1" d="M8.624,69.573H2.575A1.48,1.48,0,0,1,1.1,68.1V65H8.624v4.573ZM2.5,66.328v1.7l4.721.074v-1.77Z" transform="translate(-0.289 -17.054)"/>
    <path id="Path_217" data-name="Path 217" class="cls-1" d="M50.849,69.573H44.8V65h7.524v3.1A1.53,1.53,0,0,1,50.849,69.573Zm-4.647-1.4h4.647a.072.072,0,0,0,.074-.074V66.4H46.2v1.77Z" transform="translate(-11.754 -17.054)"/>
    <path id="Path_218" data-name="Path 218" class="cls-1" d="M34.915,83.473H11.975A1.48,1.48,0,0,1,10.5,82V78.9H36.464V82A1.6,1.6,0,0,1,34.915,83.473ZM11.9,80.3V82l23.014.074A.072.072,0,0,0,34.989,82V80.3Z" transform="translate(-2.755 -20.701)"/>
    <rect id="Rectangle_132" data-name="Rectangle 132" class="cls-1" width="1.401" height="40.864" transform="translate(19.99 17.334)"/>
    <path id="Path_219" data-name="Path 219" class="cls-1" d="M28.915,21.192h-6.27A3.274,3.274,0,0,1,19.4,17.946V10.717a6.417,6.417,0,1,1,12.835,0v7.155A3.353,3.353,0,0,1,28.915,21.192ZM25.817,5.7A5.021,5.021,0,0,0,20.8,10.717v7.155a1.874,1.874,0,0,0,1.844,1.844h6.27a1.874,1.874,0,0,0,1.844-1.844V10.717A5.006,5.006,0,0,0,25.817,5.7Z" transform="translate(-5.09 -1.128)"/>
    <rect id="Rectangle_133" data-name="Rectangle 133" class="cls-1" width="1.401" height="9.442" transform="translate(23.161 19.326)"/>
    <rect id="Rectangle_134" data-name="Rectangle 134" class="cls-1" width="1.401" height="9.442" transform="translate(16.818 19.326)"/>
    <rect id="Rectangle_135" data-name="Rectangle 135" class="cls-1" width="6.344" height="1.401" transform="translate(27.44 44.774)"/>
    <rect id="Rectangle_136" data-name="Rectangle 136" class="cls-1" width="6.344" height="1.401" transform="translate(7.598 44.774)"/>
  </g>
</svg>
