<svg xmlns="http://www.w3.org/2000/svg" viewBox="3391 -844 56 85.1">
  <defs>
    <style>
      .cls-1 {
        fill: #c7c8ca;
      }
    </style>
  </defs>
  <g id="Group_274" data-name="Group 274" transform="translate(3391 -844)">
    <g id="Group_273" data-name="Group 273">
      <path id="Path_215" data-name="Path 215" class="cls-1" d="M44.7,80.8H11.4a2.006,2.006,0,0,1-2-2v-12H2a2.006,2.006,0,0,1-2-2V37.6A15.151,15.151,0,0,1,9.3,23.7,14.227,14.227,0,0,1,15,22.5V13a13,13,0,0,1,26,0v9.5a13.879,13.879,0,0,1,5.7,1.2A16.268,16.268,0,0,1,51.6,27,14.985,14.985,0,0,1,56,37.6V64.8a2.006,2.006,0,0,1-2,2H46.6V78.7A1.947,1.947,0,0,1,44.7,80.8ZM15,24.4a12.407,12.407,0,0,0-5,1,13.891,13.891,0,0,0-4.3,2.8,13.1,13.1,0,0,0-3.9,9.3V64.7l9.4.1V78.6l33.4.1a.1.1,0,0,0,.1-.1V64.9H54l.1-27.4a13.1,13.1,0,0,0-3.9-9.3,12.307,12.307,0,0,0-4.3-2.8,12.407,12.407,0,0,0-5-1h-2l.1-1V13a11.05,11.05,0,1,0-22.1,0V23.3l.1,1H15Z"/>
      <rect id="Rectangle_130" data-name="Rectangle 130" class="cls-1" width="1.9" height="30.1" transform="translate(9.4 36.9)"/>
      <rect id="Rectangle_131" data-name="Rectangle 131" class="cls-1" width="1.9" height="30.1" transform="translate(44.8 36.9)"/>
      <path id="Path_216" data-name="Path 216" class="cls-1" d="M11.3,71.2H3.1a2.006,2.006,0,0,1-2-2V65H11.3v6.2ZM3,66.8v2.3l6.4.1V66.8Z"/>
      <path id="Path_217" data-name="Path 217" class="cls-1" d="M53,71.2H44.8V65H55v4.2A2.074,2.074,0,0,1,53,71.2Zm-6.3-1.9H53a.1.1,0,0,0,.1-.1V66.9H46.7v2.4Z"/>
      <path id="Path_218" data-name="Path 218" class="cls-1" d="M43.6,85.1H12.5a2.006,2.006,0,0,1-2-2V78.9H45.7v4.2A2.165,2.165,0,0,1,43.6,85.1ZM12.4,80.8v2.3l31.2.1a.1.1,0,0,0,.1-.1V80.8Z"/>
      <rect id="Rectangle_132" data-name="Rectangle 132" class="cls-1" width="1.9" height="55.4" transform="translate(27.1 23.5)"/>
      <path id="Path_219" data-name="Path 219" class="cls-1" d="M32.3,27.2H23.8a4.439,4.439,0,0,1-4.4-4.4V13a8.7,8.7,0,1,1,17.4,0v9.7A4.546,4.546,0,0,1,32.3,27.2Zm-4.2-21A6.807,6.807,0,0,0,21.3,13v9.7a2.54,2.54,0,0,0,2.5,2.5h8.5a2.54,2.54,0,0,0,2.5-2.5V13A6.786,6.786,0,0,0,28.1,6.2Z"/>
      <rect id="Rectangle_133" data-name="Rectangle 133" class="cls-1" width="1.9" height="12.8" transform="translate(31.4 26.2)"/>
      <rect id="Rectangle_134" data-name="Rectangle 134" class="cls-1" width="1.9" height="12.8" transform="translate(22.8 26.2)"/>
      <rect id="Rectangle_135" data-name="Rectangle 135" class="cls-1" width="8.6" height="1.9" transform="translate(37.2 60.7)"/>
      <rect id="Rectangle_136" data-name="Rectangle 136" class="cls-1" width="8.6" height="1.9" transform="translate(10.3 60.7)"/>
    </g>
  </g>
</svg>
