<svg xmlns="http://www.w3.org/2000/svg" viewBox="0 0 19.846 19.846">
  <path id="iconmonstr-instagram-11" d="M9.923,1.789c2.649,0,2.964.01,4.011.058,2.689.122,3.945,1.4,4.068,4.068.048,1.046.057,1.36.057,4.01s-.01,2.964-.057,4.01C17.878,16.6,16.625,17.879,13.934,18c-1.047.048-1.359.058-4.011.058s-2.964-.01-4.01-.058c-2.7-.123-3.945-1.4-4.068-4.069-.048-1.046-.058-1.359-.058-4.01s.011-2.963.058-4.01c.123-2.669,1.376-3.945,4.068-4.068,1.047-.047,1.36-.057,4.01-.057ZM9.923,0C7.228,0,6.891.012,5.832.06,2.229.225.226,2.224.06,5.832.012,6.891,0,7.228,0,9.923s.012,3.033.06,4.092c.165,3.6,2.165,5.607,5.772,5.772,1.059.048,1.4.06,4.092.06s3.033-.012,4.092-.06c3.6-.165,5.608-2.165,5.771-5.772.049-1.058.06-1.4.06-4.092s-.012-3.032-.06-4.091C19.625,2.232,17.623.226,14.016.06,12.956.012,12.618,0,9.923,0Zm0,4.828a5.1,5.1,0,1,0,5.1,5.1A5.1,5.1,0,0,0,9.923,4.828Zm0,8.4a3.308,3.308,0,1,1,3.308-3.308A3.307,3.307,0,0,1,9.923,13.231Zm5.3-9.8a1.191,1.191,0,1,0,1.19,1.191A1.191,1.191,0,0,0,15.221,3.436Z"/>
</svg>
