<svg xmlns="http://www.w3.org/2000/svg" viewBox="-475 4587.926 53.618 53.642">
  <defs>
    <style>
      .cls-1 {
        fill: #fff;
      }
    </style>
  </defs>
  <g id="Group_127" data-name="Group 127" transform="translate(-475.1 4587.926)">
    <path id="Path_163" data-name="Path 163" class="cls-1" d="M33,53.642H20.817a.415.415,0,0,0-.117-.023c-.607-.012-1.214-.012-1.821-.035-.805-.023-1.622-.035-2.428-.082-.98-.058-1.961-.128-2.941-.233a16.435,16.435,0,0,1-4.1-1A13.5,13.5,0,0,1,2.528,46.51,16.048,16.048,0,0,1,.4,39.881c-.105-.9-.152-1.8-.187-2.7C.17,36.076.147,34.979.123,33.87.112,33.649.1,33.438.1,33.217v-12.8a.341.341,0,0,0,.023-.105c.012-.56.012-1.109.035-1.669.035-.992.07-2,.117-2.988A23.164,23.164,0,0,1,.649,12.3,15.972,15.972,0,0,1,2.026,8.018,13.569,13.569,0,0,1,4.792,4.283,12.907,12.907,0,0,1,7.99,2a17.667,17.667,0,0,1,6.7-1.762c.829-.07,1.669-.105,2.5-.14,1.144-.035,2.3-.058,3.443-.082C21.284,0,21.937,0,22.591,0c3.618,0,7.225.012,10.843.023,1.12,0,2.241.047,3.361.082.852.035,1.692.082,2.544.14A17.182,17.182,0,0,1,42.234.7a14.248,14.248,0,0,1,6.011,2.883,13.6,13.6,0,0,1,3.1,3.63,16.7,16.7,0,0,1,2.089,6.816c.082.829.128,1.669.163,2.5.047,1.155.07,2.323.093,3.478.012.245.023.479.023.724V32.913a.415.415,0,0,0-.023.117c-.012.607-.012,1.2-.035,1.809-.023.805-.058,1.622-.082,2.428a29.239,29.239,0,0,1-.28,3.35,17.413,17.413,0,0,1-1.015,3.84A13.5,13.5,0,0,1,46.424,51.3a16.223,16.223,0,0,1-6.758,2.054c-.817.082-1.646.128-2.474.163-1.155.047-2.311.07-3.466.093Zm-6.1-48.8v.023c-2.159,0-4.318-.012-6.478,0-1.109.012-2.206.035-3.315.082-.957.047-1.9.105-2.859.2a11.972,11.972,0,0,0-2.988.7,8.726,8.726,0,0,0-4.879,4.33A13,13,0,0,0,5.13,15.219c-.058.91-.105,1.821-.128,2.743-.035,1-.047,2.019-.058,3.023-.012.467-.012.934-.012,1.4.012,3.641.012,7.271.023,10.913,0,.864.023,1.739.058,2.6.047,1.039.093,2.066.175,3.1a12.98,12.98,0,0,0,.537,2.824,8.927,8.927,0,0,0,5.556,5.987,15.285,15.285,0,0,0,4.458.829c1.132.058,2.253.105,3.385.128,1.039.023,2.066.035,3.1.035,3.63,0,7.248,0,10.878-.023,1.155,0,2.311-.035,3.466-.082q1.366-.053,2.731-.175a12.174,12.174,0,0,0,3.163-.7,8.675,8.675,0,0,0,5.077-4.587,13.3,13.3,0,0,0,1.132-4.832c.058-.934.105-1.867.128-2.813s.047-1.891.058-2.836c.012-.922.012-1.844.012-2.754,0-3.163-.012-6.314-.023-9.477,0-.537-.012-1.085-.023-1.622-.035-1.027-.07-2.054-.117-3.07a18.328,18.328,0,0,0-.362-2.988A9.36,9.36,0,0,0,45.63,7.785a8.913,8.913,0,0,0-2.264-1.564,13.555,13.555,0,0,0-4.832-1.144c-.91-.058-1.832-.105-2.754-.128q-1.7-.053-3.4-.07C30.551,4.844,28.73,4.844,26.9,4.844Z"/>
    <path id="Path_164" data-name="Path 164" class="cls-1" d="M125.466,111.8a13.772,13.772,0,1,1-13.784,13.5A13.768,13.768,0,0,1,125.466,111.8Zm-8.929,13.772a8.929,8.929,0,1,0,9.092-8.929A8.929,8.929,0,0,0,116.538,125.572Z" transform="translate(-98.557 -98.751)"/>
    <path id="Path_165" data-name="Path 165" class="cls-1" d="M328.025,85.95a3.227,3.227,0,1,1,3.221-3.315A3.232,3.232,0,0,1,328.025,85.95Z" transform="translate(-286.795 -70.217)"/>
  </g>
</svg>
