<svg xmlns="http://www.w3.org/2000/svg" viewBox="0 0 42.631 42.632">
  <defs>
    <style>
      .cls-1 {
        fill: #fff;
      }
    </style>
  </defs>
  <path id="iconmonstr-instagram-11" class="cls-1" d="M21.316,3.842c5.691,0,6.366.021,8.615.124,5.777.263,8.475,3,8.738,8.738.1,2.247.123,2.922.123,8.613s-.021,6.366-.123,8.613c-.265,5.729-2.956,8.475-8.738,8.738-2.249.1-2.92.124-8.615.124s-6.366-.021-8.613-.124c-5.791-.265-8.475-3.018-8.738-8.74-.1-2.247-.124-2.92-.124-8.613s.023-6.365.124-8.613C4.229,6.97,6.92,4.228,12.7,3.965c2.249-.1,2.922-.123,8.613-.123Zm0-3.842C15.527,0,14.8.025,12.528.128,4.787.483.485,4.778.13,12.527c-.1,2.275-.13,3-.13,8.789s.025,6.516.128,8.789c.355,7.741,4.65,12.043,12.4,12.4,2.275.1,3,.128,8.789.128s6.515-.025,8.789-.128c7.734-.355,12.047-4.65,12.4-12.4.1-2.274.13-3,.13-8.789s-.025-6.514-.128-8.787C42.155,4.794,37.855.485,30.107.13c-2.275-.1-3-.13-8.791-.13Zm0,10.37A10.947,10.947,0,1,0,32.261,21.316,10.946,10.946,0,0,0,21.316,10.37Zm0,18.051a7.105,7.105,0,1,1,7.105-7.105A7.1,7.1,0,0,1,21.316,28.421ZM32.695,7.381a2.558,2.558,0,1,0,2.556,2.558A2.559,2.559,0,0,0,32.695,7.381Z"/>
</svg>
