<svg xmlns="http://www.w3.org/2000/svg" viewBox="2276.199 2477.748 44.801 44.82">
  <defs>
    <style>
      .cls-1 {
        fill: #44b1de;
      }
    </style>
  </defs>
  <g id="Group_259" data-name="Group 259" transform="translate(2276.199 2477.748)">
    <path id="Path_163" data-name="Path 163" class="cls-1" d="M27.591,44.82H17.41a.347.347,0,0,0-.1-.02c-.507-.01-1.014-.01-1.521-.029-.673-.02-1.356-.029-2.028-.068-.819-.049-1.638-.107-2.458-.2a13.732,13.732,0,0,1-3.423-.839,11.283,11.283,0,0,1-5.754-4.808A13.409,13.409,0,0,1,.354,33.323C.266,32.572.227,31.821.2,31.07.159,30.143.139,29.227.12,28.3c-.01-.185-.02-.361-.02-.546v-10.7a.285.285,0,0,0,.02-.088c.01-.468.01-.926.029-1.395.029-.829.059-1.668.1-2.5a19.355,19.355,0,0,1,.312-2.8A13.345,13.345,0,0,1,1.709,6.7,11.338,11.338,0,0,1,4.02,3.579,10.785,10.785,0,0,1,6.692,1.668,14.762,14.762,0,0,1,12.29.2c.692-.059,1.395-.088,2.087-.117C15.333.049,16.3.029,17.254.01,17.8,0,18.346,0,18.892,0c3.023,0,6.036.01,9.06.02.936,0,1.872.039,2.809.068.712.029,1.414.068,2.126.117A14.357,14.357,0,0,1,35.3.585a11.9,11.9,0,0,1,5.022,2.409,11.367,11.367,0,0,1,2.594,3.033,13.953,13.953,0,0,1,1.746,5.7c.068.692.107,1.395.137,2.087.039.965.059,1.941.078,2.906.01.2.02.4.02.6V27.5a.347.347,0,0,0-.02.1c-.01.507-.01,1-.029,1.512-.02.673-.049,1.356-.068,2.028a24.43,24.43,0,0,1-.234,2.8,14.549,14.549,0,0,1-.848,3.208,11.283,11.283,0,0,1-4.9,5.715,13.555,13.555,0,0,1-5.646,1.716c-.683.068-1.375.107-2.067.137-.965.039-1.931.059-2.9.078Zm-5.1-40.773v.02c-1.8,0-3.608-.01-5.412,0-.926.01-1.843.029-2.77.068-.8.039-1.59.088-2.389.166a10,10,0,0,0-2.5.585A7.291,7.291,0,0,0,5.347,8.5,10.858,10.858,0,0,0,4.3,12.717c-.049.761-.088,1.521-.107,2.292-.029.839-.039,1.687-.049,2.526-.01.39-.01.78-.01,1.17.01,3.043.01,6.075.02,9.118,0,.722.02,1.453.049,2.175.039.868.078,1.726.146,2.594a10.845,10.845,0,0,0,.449,2.36,7.459,7.459,0,0,0,4.642,5,12.771,12.771,0,0,0,3.725.692c.946.049,1.882.088,2.828.107.868.02,1.726.029,2.594.029,3.033,0,6.056,0,9.089-.02.965,0,1.931-.029,2.9-.068q1.141-.044,2.282-.146a10.172,10.172,0,0,0,2.643-.585,7.249,7.249,0,0,0,4.242-3.833,11.111,11.111,0,0,0,.946-4.037c.049-.78.088-1.56.107-2.35s.039-1.58.049-2.37c.01-.77.01-1.541.01-2.3,0-2.643-.01-5.276-.02-7.919,0-.449-.01-.907-.02-1.356-.029-.858-.059-1.716-.1-2.565a15.314,15.314,0,0,0-.3-2.5A7.821,7.821,0,0,0,38.143,6.5,7.447,7.447,0,0,0,36.251,5.2a11.326,11.326,0,0,0-4.037-.956c-.761-.049-1.531-.088-2.3-.107q-1.419-.044-2.838-.059C25.543,4.047,24.022,4.047,22.491,4.047Z" transform="translate(-0.1)"/>
    <path id="Path_164" data-name="Path 164" class="cls-1" d="M123.2,111.8a11.508,11.508,0,1,1-11.517,11.283A11.5,11.5,0,0,1,123.2,111.8Zm-7.46,11.507a7.46,7.46,0,1,0,7.6-7.46A7.46,7.46,0,0,0,115.739,123.307Z" transform="translate(-100.799 -100.897)"/>
    <path id="Path_165" data-name="Path 165" class="cls-1" d="M327.493,84.888a2.7,2.7,0,1,1,2.692-2.77A2.7,2.7,0,0,1,327.493,84.888Z" transform="translate(-293.127 -71.742)"/>
  </g>
</svg>
