<svg xmlns="http://www.w3.org/2000/svg" viewBox="0 0 27.31 27.29"><defs><style>.cls-1{fill:#236a86;}</style></defs><title>Asset 4</title><g id="Layer_2" data-name="Layer 2"><g id="Footer"><g id="TLHKk4"><path class="cls-1" d="M0,13.63C0,11.79,0,9.95.1,8.1A8.9,8.9,0,0,1,1.28,3.59,6.79,6.79,0,0,1,6.1.33,24.59,24.59,0,0,1,9.84,0C12.55,0,15.26,0,18,0a13.22,13.22,0,0,1,4.25.54A6.85,6.85,0,0,1,27,6.06a21.83,21.83,0,0,1,.31,3.77c0,2.71,0,5.42,0,8.13a13.18,13.18,0,0,1-.54,4.22A6.85,6.85,0,0,1,21.24,27a22.13,22.13,0,0,1-3.77.31c-2.7,0-5.4,0-8.1,0a13.22,13.22,0,0,1-4.25-.54A6.85,6.85,0,0,1,.36,21.23,25.34,25.34,0,0,1,0,17.46c0-1.27,0-2.55,0-3.83Zm24.9-.21h-.06c0-1.08,0-2.15,0-3.23s-.07-2.07-.17-3.1a4.58,4.58,0,0,0-3.88-4.33,22.31,22.31,0,0,0-3.71-.28c-2.27,0-4.54,0-6.82,0a25.53,25.53,0,0,0-3.51.24A4.45,4.45,0,0,0,2.88,6.11a8,8,0,0,0-.29,1.94c-.06,2.47-.1,4.94-.09,7.41,0,1.57,0,3.15.18,4.71a4.54,4.54,0,0,0,3.86,4.34,22.18,22.18,0,0,0,3.74.29c2.26,0,4.52,0,6.79,0,1.05,0,2.11-.07,3.16-.17a5,5,0,0,0,2.66-1,5.05,5.05,0,0,0,1.83-3.94C24.82,17.59,24.84,15.5,24.9,13.42Z"/><path class="cls-1" d="M20.67,13.65a7,7,0,1,1-6.93-7A7,7,0,0,1,20.67,13.65Zm-7-4.56a4.54,4.54,0,1,0,4.55,4.54A4.57,4.57,0,0,0,13.66,9.1Z"/><path class="cls-1" d="M21,4.73a1.61,1.61,0,0,1,1.62,1.66A1.64,1.64,0,0,1,21,8,1.66,1.66,0,0,1,19.3,6.36,1.64,1.64,0,0,1,21,4.73Z"/></g></g></g></svg>