<svg xmlns="http://www.w3.org/2000/svg" viewBox="82 4035 67.31 85.82"><defs><style>.a{fill:#44b1de;}</style></defs><g transform="translate(82.01 4035)"><path class="a" d="M36.142,0c1.642.285,3.318.436,4.927.855C53.739,4.056,62.085,11.933,65.94,24.4c2.145,6.938,1.592,13.893-.536,20.748a62.809,62.809,0,0,1-8.313,16.709A113.824,113.824,0,0,1,36.226,84.752a3.715,3.715,0,0,1-5.162.05A109.965,109.965,0,0,1,8.724,59.78,56.534,56.534,0,0,1,.7,40.708,33.759,33.759,0,0,1,21.159,2.38,31.705,31.705,0,0,1,30.46.151,3.92,3.92,0,0,0,31.1,0ZM56.018,33.653a22.39,22.39,0,1,0-22.726,22.34A22.429,22.429,0,0,0,56.018,33.653Z" transform="translate(0)"/><path class="a" d="M136.771,121.9A12.888,12.888,0,1,1,123.8,135.022,12.9,12.9,0,0,1,136.771,121.9Z" transform="translate(-103.059 -101.47)"/></g></svg>