<svg xmlns="http://www.w3.org/2000/svg" viewBox="0 0 501.553 44.654">
  <defs>
    <style>
      .cls-1, .cls-2 {
        fill: #fff;
      }

      .cls-1 {
        fill-rule: evenodd;
      }
    </style>
  </defs>
  <g id="Group_517" data-name="Group 517" transform="translate(0 -87)">
    <g id="Group_2" data-name="Group 2" transform="translate(0 87)">
      <path id="Path_1" data-name="Path 1" class="cls-1" d="M36.079,37.584,23.3,23.994l9.546-10.031L27.5,8.3,0,37.584H10.516l7.6-7.928,7.442,7.928Z" transform="translate(0 5.129)"/>
      <path id="Path_2" data-name="Path 2" class="cls-1" d="M49.926,16.988l5.339-5.663L44.587,0,18.7,27.666,32.938,42.713H43.454L29.216,27.666l15.37-16.5Z" transform="translate(11.555)"/>
      <path id="Path_3" data-name="Path 3" class="cls-1" d="M74.453,36.287,50.185,10.4,35.3,26.256l5.339,5.663,9.546-10.193L63.937,36.287Z" transform="translate(21.812 6.426)"/>
      <g id="Group_1" data-name="Group 1" transform="translate(108.724 16.988)">
        <path id="Path_4" data-name="Path 4" class="cls-2" d="M384.149,11h-5.663L372.5,18.6l2.912,3.559ZM333.509,22H320.242V11h-4.368V37.534h4.368V26.37h13.267V37.534h4.368V11h-4.368Zm12.134,15.532h4.368V11h-4.368Zm25.239-16.826h0l-1.456-1.78-.162-.162-5.986-7.6h-5.663L367.97,24.429,357.616,37.7h5.663l7.6-9.707,7.6,9.707h5.663l-8.737-11ZM299.209,11H285.942V37.534h4.368v-8.9h8.9a8.549,8.549,0,0,0,6.31-2.589,8.449,8.449,0,0,0,2.589-6.148,8.839,8.839,0,0,0-8.9-8.9m3.236,11.973a4.42,4.42,0,0,1-3.074,1.294h-8.9v-8.9h8.9a4.42,4.42,0,0,1,3.074,1.294,4.518,4.518,0,0,1,1.294,3.236,4.421,4.421,0,0,1-1.294,3.074M251.8,37.534h5.016l1.294-2.589,3.074-6.31h0l3.883-7.766,2.427,4.854,3.721,7.442.809,1.456.162.162,1.294,2.75H278.5L265.071,11Zm-48.7-11h6.633v3.721a7.908,7.908,0,0,1-2.912,2.265,9.6,9.6,0,0,1-3.721.809,8.839,8.839,0,0,1-8.9-8.9,7.957,7.957,0,0,1,2.589-6.148,9.225,9.225,0,0,1,6.31-2.589,8.549,8.549,0,0,1,6.31,2.589l3.236-3.074a15.069,15.069,0,0,0-4.207-2.912,14.014,14.014,0,0,0-5.177-.971,12.7,12.7,0,0,0-9.384,3.883A12.959,12.959,0,0,0,190,24.59a12.7,12.7,0,0,0,3.883,9.384,12.7,12.7,0,0,0,9.384,3.883,12.317,12.317,0,0,0,3.4-.485,10.016,10.016,0,0,0,3.074-1.133,9.871,9.871,0,0,0,2.589-1.941,28.133,28.133,0,0,0,2.1-2.427V22.325H203.267v4.207Zm39.315-1.78a7.94,7.94,0,0,0,1.456-5.016,7.957,7.957,0,0,0-2.589-6.148A8.449,8.449,0,0,0,235.14,11H221.873V37.534h4.368v-8.9h7.6l5.177,8.9h5.016l-5.5-9.546a8.416,8.416,0,0,0,3.883-3.236m-4.045-1.78a4.42,4.42,0,0,1-3.074,1.294h-8.9V15.53h8.9a4.142,4.142,0,0,1,3.074,1.294,4.3,4.3,0,0,1,0,6.148" transform="translate(8.68 -10.191)"/>
        <path id="Path_5" data-name="Path 5" class="cls-2" d="M96.97,15.03H114.6V10.662H96.97Zm38.506,5.177h0l-7.442-9.546h-5.663l10.355,13.267L122.371,37.2h5.663l7.442-9.707,7.6,9.707h5.663L138.388,23.929ZM96.97,26.032H114.6V21.664H96.97Zm-29.77-11h8.9v22h4.368v-22H89.2V10.662h-22Zm43.684,17.635H96.808v4.368h17.635V32.665ZM137.094,18.1l2.912,3.559,8.575-11h-5.663Zm99.5,14.561H223.329v4.368h17.635V32.665Zm-13.267-6.633h17.635V21.664H223.329Zm0-11h17.635V10.662H223.329ZM202.457,10.5h-4.368V36.872h17.635V32.5H202.457Zm-46.272,4.53h8.9v22h4.368v-22h8.737V10.662h-22Zm29.77,22h4.368V10.5h-4.368Z" transform="translate(-67.2 -10.5)"/>
      </g>
    </g>
  </g>
</svg>
