<svg xmlns="http://www.w3.org/2000/svg" viewBox="3290 -819 56.1 56.2">
  <defs>
    <style>
      .cls-1 {
        fill: #c7c8ca;
      }
    </style>
  </defs>
  <g id="Group_272" data-name="Group 272" transform="translate(3290 -819)">
    <g id="Group_271" data-name="Group 271">
      <path id="Path_210" data-name="Path 210" class="cls-1" d="M42.5,51.9H13.6a4.225,4.225,0,0,1-4.2-4.2V44.3H2a2.006,2.006,0,0,1-2-2V15A15.151,15.151,0,0,1,9.3,1.1,16.037,16.037,0,0,1,15,0h5.3V.9a7.938,7.938,0,0,0,8,7.9,8,8,0,0,0,8-7.9V0h4.8a13.879,13.879,0,0,1,5.7,1.2,16.268,16.268,0,0,1,4.9,3.3,14.985,14.985,0,0,1,4.4,10.6V42.3a2.006,2.006,0,0,1-2,2H46.7v3.4A4.225,4.225,0,0,1,42.5,51.9ZM15,1.9a12.407,12.407,0,0,0-5,1A12.178,12.178,0,0,0,5.8,5.8,12.7,12.7,0,0,0,1.9,15V42.2l9.4.1v5.3a2.263,2.263,0,0,0,2.3,2.3H42.5a2.263,2.263,0,0,0,2.3-2.3V42.3h9.3L54.2,15a13.1,13.1,0,0,0-3.9-9.3A12.307,12.307,0,0,0,46,2.9a12.407,12.407,0,0,0-5-1H38a9.846,9.846,0,0,1-19.6,0H15Z"/>
      <path id="Path_211" data-name="Path 211" class="cls-1" d="M46.7,46.1H44.8V21.6a4.069,4.069,0,0,1,2-3.4l.9,1.7a2.157,2.157,0,0,0-1,1.7Zm-35.4,0H9.4V21.6a2.157,2.157,0,0,0-1-1.7l.9-1.7a3.886,3.886,0,0,1,2,3.4V46.1Z"/>
      <path id="Path_212" data-name="Path 212" class="cls-1" d="M43.5,56.2H12.6V50H43.4v6.2Zm-29-1.9h27V51.9h-27Z"/>
      <path id="Path_213" data-name="Path 213" class="cls-1" d="M11.3,48.6H1.1V42.4H11.3ZM3,46.7H9.4V44.3H3Z"/>
      <path id="Path_214" data-name="Path 214" class="cls-1" d="M55,48.6H44.8V42.4H55Zm-8.3-1.9h6.4V44.3H46.7Z"/>
      <rect id="Rectangle_129" data-name="Rectangle 129" class="cls-1" width="17.8" height="1.9" transform="translate(19.4)"/>
    </g>
  </g>
</svg>
