<svg id="Group_375" data-name="Group 375" xmlns="http://www.w3.org/2000/svg" viewBox="0 0 45.179 44.822">
  <defs>
    <style>
      .cls-1 {
        fill: none;
      }

      .cls-2 {
        fill: #a0a0a0;
      }
    </style>
  </defs>
  <path id="Path_942" data-name="Path 942" class="cls-1" d="M65.022,14.238a8.646,8.646,0,0,0,8.313-7.333c.05-.352-.251-.728-.4-1.105-1.733,3.692-3.616,6.881-7.861,6.957-4.445.075-6.354-3.24-7.936-6.932-.3.352-.6.728-.553,1.08A8.642,8.642,0,0,0,65.022,14.238Z" transform="translate(-42.348 -4.327)"/>
  <path id="Path_943" data-name="Path 943" class="cls-1" d="M73.427,15.944c2.637-.1,4.119-1.808,5.425-4.144a17.955,17.955,0,0,1-11.251.025C68.956,14.311,70.589,16.044,73.427,15.944Z" transform="translate(-50.602 -8.82)"/>
  <path id="Path_944" data-name="Path 944" class="cls-1" d="M5.5,155.632c2.311.326,4.47.628,6.731.954.05-.578.075-.954.126-1.457-2.26-.3-4.42-.6-6.68-.929C5.626,154.677,5.575,155.079,5.5,155.632Z" transform="translate(-4.098 -115.457)"/>
  <path id="Path_945" data-name="Path 945" class="cls-1" d="M47.462,35.3c-.728-7.082-1.432-14.139-2.26-21.2A3.229,3.229,0,0,0,44,11.916C41.61,10.66,39.1,9.63,36.613,8.5c-1.532,5.3-4.42,8.212-8.489,8.388-5.676.2-8.664-3.089-10-8.363-2.386,1.03-4.7,2.009-6.957,3.064a2.849,2.849,0,0,0-1.658,2.486c-.8,7.986-1.658,15.973-2.461,23.959-.226,2.11-.427,4.219-.653,6.4,2.285.326,4.42.6,6.655.9.075-.527.151-.854.2-1.18.452-4.8.9-9.569,1.331-14.365.176-1.884.326-3.742.553-5.626.05-.352.452-.653.7-.979a7.545,7.545,0,0,1,.628,1.03,2.546,2.546,0,0,1,.025.879c0,6.957.025,13.888.025,20.845v1.532H38.3V45.92c0-7.107-.025-14.24.025-21.347,0-.452.377-.9.578-1.356.276.4.728.779.779,1.205.477,4.671.9,9.317,1.331,13.989.226,2.285.452,4.546.7,6.932,2.311-.326,4.47-.628,6.706-.929C48.065,41.274,47.763,38.286,47.462,35.3Z" transform="translate(-4.772 -6.349)"/>
  <path id="Path_946" data-name="Path 946" class="cls-1" d="M146.9,155.054c.1.553.151.979.226,1.457,2.285-.326,4.42-.628,6.605-.954-.025-.5-.05-.9-.075-1.457C151.345,154.426,149.185,154.728,146.9,155.054Z" transform="translate(-109.986 -115.382)"/>
  <path id="Path_947" data-name="Path 947" class="cls-1" d="M46.6,167.1c.025.553.05.979.075,1.432H68.3c.025-.326.05-.553.05-.8a6.071,6.071,0,0,0-.075-.628Z" transform="translate(-34.876 -125.117)"/>
  <path id="Path_948" data-name="Path 948" class="cls-2" d="M45.069,39.632c-.628-5.4-1.13-10.8-1.708-16.224-.553-5.374-1.13-10.724-1.683-16.1a3.882,3.882,0,0,0-2.26-3.265c-3.039-1.406-6.1-2.712-9.192-3.993a1.587,1.587,0,0,0-1.155.3,11.018,11.018,0,0,1-2.059,1.457,14.122,14.122,0,0,1-8.991.025A3.416,3.416,0,0,1,16.162.654c-.5-.879-.979-.829-1.708-.5-2.461,1.13-4.922,2.285-7.484,3.24a5.487,5.487,0,0,0-3.817,5.3c-.326,4.47-.854,8.916-1.331,13.361C1.194,28.029.566,34.031-.062,40.008c-.1.879.151,1.306,1.08,1.406,2.21.276,4.4.628,6.58.954,1.507.226,1.632.126,1.783-1.432.226-2.361.427-4.722.653-7.082a87.822,87.822,0,0,1,.226,9.267c-.025,1.256.377,1.658,1.632,1.632,7.082-.05,14.139-.05,21.222,0,1.256,0,1.683-.326,1.658-1.632-.075-3.014-.025-6-.025-9.016.075,0,.176-.025.251-.025.226,2.361.477,4.722.653,7.107.075,1.03.5,1.381,1.532,1.205,2.135-.352,4.295-.728,6.454-.929C44.918,41.339,45.195,40.862,45.069,39.632ZM28.167,2.914c-1.306,2.361-2.788,4.043-5.425,4.144-2.838.1-4.47-1.632-5.827-4.119A18.134,18.134,0,0,0,28.167,2.914ZM14.706,1.433c1.607,3.667,3.516,6.982,7.961,6.906,4.244-.075,6.128-3.24,7.861-6.957.151.377.452.753.4,1.105a8.67,8.67,0,0,1-8.313,7.333,8.62,8.62,0,0,1-8.438-7.308C14.1,2.186,14.4,1.784,14.706,1.433ZM8.05,41.063c-2.26-.326-4.42-.628-6.731-.954.075-.553.126-.954.176-1.432,2.235.3,4.42.6,6.68.929C8.126,40.084,8.1,40.486,8.05,41.063Zm25.29,2.285H11.717c-.025-.452-.05-.879-.075-1.432h21.7a6.071,6.071,0,0,1,.075.628C33.391,42.8,33.366,43.022,33.341,43.349ZM36.1,32c-.452-4.671-.854-9.317-1.331-13.989-.05-.427-.5-.8-.779-1.205-.2.452-.578.9-.578,1.356-.025,7.107-.025,14.24-.025,21.347v1.557H11.617V39.531c0-6.957-.025-13.888-.025-20.845a2.546,2.546,0,0,0-.025-.879,5.375,5.375,0,0,0-.628-1.03c-.251.326-.653.628-.7.979-.226,1.858-.377,3.742-.553,5.626-.452,4.8-.879,9.569-1.331,14.365a11.584,11.584,0,0,1-.2,1.18c-2.235-.3-4.37-.6-6.655-.9.226-2.185.427-4.295.653-6.4Q3.392,19.641,4.61,7.661A2.849,2.849,0,0,1,6.267,5.175c2.285-1.03,4.571-2.009,6.957-3.064,1.356,5.274,4.32,8.564,10.021,8.338,4.094-.151,6.982-3.089,8.489-8.388,2.486,1.13,5,2.135,7.384,3.416a3.084,3.084,0,0,1,1.205,2.185c.8,7.057,1.532,14.139,2.26,21.2.3,2.989.6,5.977.929,9.117-2.235.3-4.42.628-6.706.929C36.555,36.543,36.329,34.257,36.1,32Zm.954,9.066c-.075-.477-.151-.9-.226-1.457,2.285-.326,4.445-.628,6.781-.954.025.553.05.954.075,1.457C41.478,40.435,39.343,40.737,37.058,41.063Z" transform="translate(0.082 0.066)"/>
</svg>
