<svg xmlns="http://www.w3.org/2000/svg" viewBox="0 0 45.963 45.599">
  <defs>
    <style>
      .cls-1 {
        fill: none;
      }

      .cls-2 {
        fill: #fff;
      }
    </style>
  </defs>
  <g id="Group_272" data-name="Group 272" transform="translate(0.99 7.646)">
    <g id="Group_364" data-name="Group 364" transform="translate(-0.908 -7.58)">
      <path id="Path_942" data-name="Path 942" class="cls-1" d="M65.169,14.385a8.8,8.8,0,0,0,8.457-7.461c.051-.358-.256-.741-.409-1.124-1.763,3.756-3.679,7-8,7.077-4.522.077-6.464-3.3-8.074-7.052-.307.358-.613.741-.562,1.1A8.792,8.792,0,0,0,65.169,14.385Z" transform="translate(-42.183 -4.367)"/>
      <path id="Path_943" data-name="Path 943" class="cls-1" d="M73.528,16.016c2.683-.1,4.19-1.84,5.519-4.216a18.266,18.266,0,0,1-11.446.026C68.98,14.355,70.64,16.118,73.528,16.016Z" transform="translate(-50.389 -8.834)"/>
      <path id="Path_944" data-name="Path 944" class="cls-1" d="M5.5,155.656c2.351.332,4.548.639,6.847.971.051-.588.077-.971.128-1.482-2.3-.307-4.5-.613-6.8-.945C5.628,154.685,5.577,155.094,5.5,155.656Z" transform="translate(-4.156 -114.85)"/>
      <path id="Path_945" data-name="Path 945" class="cls-1" d="M48.175,35.762c-.741-7.205-1.456-14.385-2.3-21.564a3.285,3.285,0,0,0-1.226-2.223C42.221,10.7,39.666,9.65,37.137,8.5c-1.559,5.391-4.5,8.355-8.636,8.534-5.774.2-8.815-3.143-10.169-8.508-2.427,1.048-4.778,2.044-7.077,3.117a2.9,2.9,0,0,0-1.686,2.529c-.818,8.125-1.686,16.25-2.5,24.375-.23,2.146-.434,4.292-.664,6.515,2.325.332,4.5.613,6.771.92.077-.537.153-.869.2-1.2.46-4.88.92-9.735,1.354-14.615.179-1.916.332-3.807.562-5.723.051-.358.46-.664.715-1a7.675,7.675,0,0,1,.639,1.048,2.59,2.59,0,0,1,.026.894c0,7.077.026,14.129.026,21.207v1.559H38.849V46.57c0-7.231-.026-14.487.026-21.718,0-.46.383-.92.588-1.38.281.409.741.792.792,1.226.485,4.752.92,9.479,1.354,14.231.23,2.325.46,4.625.715,7.052,2.351-.332,4.548-.639,6.822-.945C48.788,41.843,48.481,38.8,48.175,35.762Z" transform="translate(-4.826 -6.377)"/>
      <path id="Path_946" data-name="Path 946" class="cls-1" d="M146.9,155.071c.1.562.153,1,.23,1.482,2.325-.332,4.5-.639,6.72-.971-.026-.511-.051-.92-.077-1.482C151.422,154.432,149.225,154.739,146.9,155.071Z" transform="translate(-109.428 -114.776)"/>
      <path id="Path_947" data-name="Path 947" class="cls-1" d="M46.6,167.1c.026.562.051,1,.077,1.456h22c.026-.332.051-.562.051-.818a6.177,6.177,0,0,0-.077-.639Z" transform="translate(-34.755 -124.454)"/>
      <path id="Path_948" data-name="Path 948" class="cls-2" d="M45.853,40.321c-.639-5.493-1.15-10.987-1.737-16.505-.562-5.468-1.15-10.91-1.712-16.378a3.949,3.949,0,0,0-2.3-3.322C37.012,2.685,33.9,1.356,30.752.053A1.614,1.614,0,0,0,29.577.36a11.209,11.209,0,0,1-2.1,1.482,14.367,14.367,0,0,1-9.147.026,3.475,3.475,0,0,1-1.891-1.2c-.511-.894-1-.843-1.737-.511-2.5,1.15-5.008,2.325-7.614,3.3A5.583,5.583,0,0,0,3.209,8.843c-.332,4.548-.869,9.07-1.354,13.593C1.216,28.516.578,34.623-.061,40.7c-.1.894.153,1.329,1.1,1.431,2.248.281,4.471.639,6.694.971,1.533.23,1.661.128,1.814-1.456.23-2.4.434-4.8.664-7.205a89.345,89.345,0,0,1,.23,9.428c-.026,1.278.383,1.686,1.661,1.661,7.205-.051,14.385-.051,21.59,0,1.278,0,1.712-.332,1.686-1.661-.077-3.066-.026-6.107-.026-9.173.077,0,.179-.026.256-.026.23,2.4.485,4.8.664,7.231.077,1.048.511,1.405,1.559,1.226C40,42.773,42.2,42.39,44.4,42.186,45.7,42.058,45.98,41.572,45.853,40.321ZM28.657,2.966c-1.329,2.4-2.836,4.114-5.519,4.216-2.887.1-4.548-1.661-5.928-4.19A18.449,18.449,0,0,0,28.657,2.966ZM14.962,1.459c1.635,3.73,3.577,7.1,8.1,7.026,4.318-.077,6.234-3.3,8-7.077.153.383.46.767.409,1.124a8.82,8.82,0,0,1-8.457,7.461,8.77,8.77,0,0,1-8.585-7.435C14.349,2.225,14.656,1.816,14.962,1.459ZM8.191,41.777c-2.3-.332-4.5-.639-6.847-.971.077-.562.128-.971.179-1.456,2.274.307,4.5.613,6.8.945C8.268,40.78,8.243,41.189,8.191,41.777ZM33.921,44.1h-22c-.026-.46-.051-.894-.077-1.456H33.921a6.177,6.177,0,0,1,.077.639C33.972,43.54,33.946,43.77,33.921,44.1Zm2.811-11.549c-.46-4.752-.869-9.479-1.354-14.231-.051-.434-.511-.818-.792-1.226-.2.46-.588.92-.588,1.38-.026,7.231-.026,14.487-.026,21.718v1.584H11.82V40.218c0-7.077-.026-14.129-.026-21.207a2.59,2.59,0,0,0-.026-.894,5.469,5.469,0,0,0-.639-1.048c-.256.332-.664.639-.715,1-.23,1.891-.383,3.807-.562,5.723C9.392,28.67,8.958,33.524,8.5,38.4a11.785,11.785,0,0,1-.2,1.2c-2.274-.307-4.446-.613-6.771-.92.23-2.223.434-4.369.664-6.515Q3.452,19.983,4.691,7.8A2.9,2.9,0,0,1,6.377,5.266c2.325-1.048,4.65-2.044,7.077-3.117,1.38,5.366,4.395,8.713,10.195,8.483,4.165-.153,7.1-3.143,8.636-8.534,2.529,1.15,5.084,2.172,7.512,3.475A3.137,3.137,0,0,1,41.024,7.8c.818,7.18,1.559,14.385,2.3,21.564.307,3.04.613,6.081.945,9.275-2.274.307-4.5.639-6.822.945C37.191,37.178,36.961,34.853,36.731,32.553Zm.971,9.224c-.077-.485-.153-.92-.23-1.482,2.325-.332,4.522-.639,6.9-.971.026.562.051.971.077,1.482C42.2,41.138,40.027,41.445,37.7,41.777Z" transform="translate(0 0)"/>
    </g>
  </g>
</svg>
