<svg xmlns="http://www.w3.org/2000/svg" viewBox="0 0 55.64 55.64"><defs><style>.cls-1{fill:#44b1de;}</style></defs><title>Asset 18</title><g id="Layer_2" data-name="Layer 2"><g id="Home_Page" data-name="Home Page"><path class="cls-1" d="M10.82,37.9A1.31,1.31,0,0,1,9,37.9L6.82,35.74a1.3,1.3,0,0,1,0-1.84L35.29,5.43a1.31,1.31,0,0,1,1.84,0l2.16,2.16a1.3,1.3,0,0,1,0,1.84Z"/><path class="cls-1" d="M16.29,43.36a1.3,1.3,0,0,1-1.85,0L12.28,41.2a1.3,1.3,0,0,1,0-1.84L40.75,10.89a1.31,1.31,0,0,1,1.84,0L44.75,13a1.3,1.3,0,0,1,0,1.85Z"/><path class="cls-1" d="M21.75,48.82a1.3,1.3,0,0,1-1.84,0l-2.16-2.16a1.31,1.31,0,0,1,0-1.85L46.21,16.35a1.3,1.3,0,0,1,1.84,0l2.16,2.16a1.3,1.3,0,0,1,0,1.85Z"/><polygon class="cls-1" points="9.33 53.52 18.56 51.43 3.92 36.79 1.93 46.12 9.33 53.52"/><polygon class="cls-1" points="1.34 49.2 0 55.64 6.44 54.18 1.34 49.2"/><path class="cls-1" d="M52.6,18l1.26-1.26a6.09,6.09,0,0,0,0-8.61L47.54,1.78a6.09,6.09,0,0,0-8.61,0L37.66,3Z"/></g></g></svg>