<svg xmlns="http://www.w3.org/2000/svg" viewBox="-611 4034.957 51 89.968"><defs><style>.a{fill:#44b1de;}</style></defs><g transform="translate(-611 4034.972)"><path class="a" d="M51,36.607V6.889A6.571,6.571,0,0,0,44.452,0Q25.493-.043,6.548,0A6.341,6.341,0,0,0,2.6,1.373,6.805,6.805,0,0,0,0,7.11V83.2a6.612,6.612,0,0,0,6.843,6.755H44.157a6.758,6.758,0,0,0,1.962-.251A6.605,6.605,0,0,0,51,82.976V36.607ZM15.766,4.19c.236-.295.59-.206.9-.206H25.5c2.964,0,5.944.015,8.908-.015a1.1,1.1,0,0,1,1.224.988C35.986,6.373,35.4,7.14,33.98,7.14H16.828c-.59,0-1.136-.015-1.357-.723A2.281,2.281,0,0,1,15.766,4.19ZM29.659,79.407A4.16,4.16,0,1,1,25.6,75.159,4.183,4.183,0,0,1,29.659,79.407Zm15.56-10.221q-19.711-.022-39.437,0c-.678,0-.841-.177-.841-.841.029-9.439.015-18.878.015-28.317,0-9.395.015-18.775-.015-28.169,0-.693.192-.826.841-.826q19.711.022,39.437,0c.664,0,.841.162.841.841q-.022,28.228,0,56.472C46.059,69.039,45.882,69.186,45.219,69.186Z" transform="translate(0 0)"/></g></svg>