<svg id="Group_337" data-name="Group 337" xmlns="http://www.w3.org/2000/svg" viewBox="945 -120 91 91">
  <defs>
    <style>
      .cls-1 {
        fill: #44b1de;
      }

      .cls-2 {
        fill: #fff;
      }
    </style>
  </defs>
  <circle id="Ellipse_26" data-name="Ellipse 26" class="cls-1" cx="45.5" cy="45.5" r="45.5" transform="translate(945 -120)"/>
  <g id="resize" transform="translate(901.661 -244.307) rotate(90)">
    <path id="path2993" class="cls-2" d="M25.4-1376.777a1.064,1.064,0,0,1-.336.774l-11.17,11.17,4.845,4.845a2.069,2.069,0,0,1,.639,1.514,2.069,2.069,0,0,1-.639,1.514,2.069,2.069,0,0,1-1.514.639H2.153a2.069,2.069,0,0,1-1.514-.639A2.069,2.069,0,0,1,0-1358.473v-15.073a2.07,2.07,0,0,1,.639-1.514,2.069,2.069,0,0,1,1.514-.639,2.069,2.069,0,0,1,1.514.639l4.845,4.845,11.17-11.17a1.063,1.063,0,0,1,.774-.336,1.063,1.063,0,0,1,.774.336l3.836,3.835A1.064,1.064,0,0,1,25.4-1376.777Zm26.277-29.07v15.073a2.07,2.07,0,0,1-.639,1.514,2.069,2.069,0,0,1-1.514.639,2.069,2.069,0,0,1-1.514-.639l-4.845-4.845L32-1382.934a1.063,1.063,0,0,1-.774.336,1.063,1.063,0,0,1-.774-.336l-3.836-3.835a1.064,1.064,0,0,1-.336-.774,1.064,1.064,0,0,1,.336-.774l11.17-11.17-4.845-4.845a2.07,2.07,0,0,1-.639-1.514,2.069,2.069,0,0,1,.639-1.514,2.069,2.069,0,0,1,1.514-.639H49.527a2.069,2.069,0,0,1,1.514.639A2.069,2.069,0,0,1,51.68-1405.847Z" transform="translate(144.271 1293.017)"/>
  </g>
</svg>
