<svg xmlns="http://www.w3.org/2000/svg" viewBox="0 0 62.38 50.93"><defs><style>.cls-1,.cls-2{fill:#44b1de;}.cls-1{fill-rule:evenodd;}</style></defs><title>Asset 14</title><g id="Layer_2" data-name="Layer 2"><g id="Home_Page" data-name="Home Page"><path class="cls-1" d="M35.88,43c-3.4-2.42-8.61-1.13-11.86-5.44,0,0-1.21-1.36,1.51-4.68s2.95-8.61,2.27-12.69a8.53,8.53,0,0,0-8.53-6.8,8.53,8.53,0,0,0-8.53,6.8c-.68,4.08-.45,9.36,2.27,12.69s1.51,4.68,1.51,4.68c-3.25,4.3-8.46,3-11.86,5.44S.09,50.93.09,50.93H38.45S39.28,45.41,35.88,43Z"/><path class="cls-2" d="M62.38,9.52v1.91A9.53,9.53,0,0,1,52.85,21H45.38l-8.26,8.26V20.85A9.53,9.53,0,0,1,29,11.43V9.52A9.53,9.53,0,0,1,38.56,0H52.85A9.53,9.53,0,0,1,62.38,9.52Z"/></g></g></svg>