<svg id="Group_346" data-name="Group 346" xmlns="http://www.w3.org/2000/svg" viewBox="0 0 99.264 85.347">
  <defs>
    <style>
      .cls-1 {
        fill: #fff;
      }
    </style>
  </defs>
  <g id="Group_34" data-name="Group 34">
    <path id="Path_67" data-name="Path 67" class="cls-1" d="M225.131,422.347h-66V379.756H142.5V361.831a23.8,23.8,0,0,1,7.785-17.431,28.167,28.167,0,0,1,18.756-7.4h9.378v1.48c0,7.236,6.37,12.991,14.155,12.991s14.155-5.92,14.155-12.991V337h8.493a26.158,26.158,0,0,1,10.086,1.973,29,29,0,0,1,8.67,5.427,23.8,23.8,0,0,1,7.785,17.431v17.924H225.131v42.591Zm-62.637-3.124h59.275V376.631H238.4v-14.8a20.808,20.808,0,0,0-6.9-15.293,22,22,0,0,0-7.608-4.6,23.4,23.4,0,0,0-8.847-1.644h-5.308c-.885,8.222-8.316,14.635-17.34,14.635s-16.455-6.413-17.34-14.635h-6.016a23.4,23.4,0,0,0-8.847,1.644,27.13,27.13,0,0,0-7.608,4.6,20.808,20.808,0,0,0-6.9,15.293v14.8h16.632v42.591Z" transform="translate(-142.5 -337)"/>
    <path id="Path_68" data-name="Path 68" class="cls-1" d="M156.031,366.382h-3.362v-5.591A3.547,3.547,0,0,0,150.9,358l1.592-2.8a6.4,6.4,0,0,1,3.539,5.591Z" transform="translate(-136.037 -325.271)"/>
    <path id="Path_69" data-name="Path 69" class="cls-1" d="M190.662,366.382H187.3v-5.591c0-3.782,3.362-5.427,3.539-5.591l1.592,2.8a3.547,3.547,0,0,0-1.769,2.8Z" transform="translate(-108.031 -325.271)"/>
    <rect id="Rectangle_26" data-name="Rectangle 26" class="cls-1" width="62.637" height="3.124" transform="translate(18.225 75.151)"/>
    <rect id="Rectangle_27" data-name="Rectangle 27" class="cls-1" width="31.495" height="3.124" transform="translate(33.796)"/>
    <path id="Path_70" data-name="Path 70" class="cls-1" d="M179.309,345.551H167.1V337h12.209Zm-8.847-3.124h5.485v-2.3h-5.485Z" transform="translate(-123.573 -337)"/>
  </g>
</svg>
