<svg xmlns="http://www.w3.org/2000/svg" viewBox="633 109.578 55.474 51.174"><defs><style>.a{fill:none;}.b{fill:#44b1de;}</style></defs><g transform="translate(-1018 29)"><g transform="translate(1651 88.23)"><path class="a" d="M248.183,125.7h0Z" transform="translate(-208.251 -108.786)"/><path class="b" d="M46.4,6.354a1.71,1.71,0,0,0-.524-.887,2.413,2.413,0,0,0-1.761-.7q-16.5.02-32.994,0c-.363,0-.444-.04-.511-.4C10.5,3.8,10.42,3.234,10.339,2.67A3.989,3.989,0,0,0,9.734.814,2.33,2.33,0,0,0,8.7.048,2.71,2.71,0,0,0,7.825-.1c-1.8.013-3.63.013-5.445.027A2.088,2.088,0,0,0,.9.451,3.12,3.12,0,0,0,.363,1.1c-.108.161-.134.4-.242.565A.641.641,0,0,0,0,2.118a2.164,2.164,0,0,0,.134.914,3.8,3.8,0,0,0,.471.86,1.991,1.991,0,0,0,1.035.686,5.233,5.233,0,0,0,1.116.108q1.371.02,2.743,0a.274.274,0,0,1,.309.229c.067.255.108.511.161.766.04.2.054.4.094.592.108.632.215,1.25.323,1.882.027.2.067.4.094.592.04.269.081.524.121.793a3.685,3.685,0,0,0,.067.376c.054.282.094.551.148.834.027.148.054.3.081.43.04.255.081.5.121.753.027.148.04.3.067.444.054.309.108.605.161.914.027.121.04.255.067.376.04.242.094.484.134.739.027.188.054.376.094.551.108.645.215,1.291.323,1.923.027.161.054.336.081.5.04.3.094.592.148.9.013.108.04.229.054.336.054.269.094.524.148.793.027.161.054.336.081.5.04.269.081.538.134.82a3.686,3.686,0,0,0,.067.376c.054.269.094.538.148.807.027.175.054.35.094.511.04.242.081.471.121.713.027.148.04.309.067.457.108.605.229,1.2.336,1.8.027.175.027.35.054.524.108.618.242,1.237.35,1.855.04.2.027.417.067.618.108.605.229,1.2.336,1.8.094.524.148,1.049.255,1.573a2.077,2.077,0,0,0,.255.7,2.609,2.609,0,0,0,.672.766,2.733,2.733,0,0,0,1.533.524H39.125a2.815,2.815,0,0,0,1.829-.618,1.917,1.917,0,0,0,.672-.995,2.431,2.431,0,0,0-.4-2.326,2.1,2.1,0,0,0-1.56-.847c-.229-.013-.444-.013-.672-.013H15.314a3.038,3.038,0,0,1-.35-.013.2.2,0,0,1-.215-.188c-.067-.43-.148-.86-.215-1.291-.04-.2-.054-.4-.108-.592-.094-.323-.054-.39.3-.4h26.85a2.731,2.731,0,0,0,1.439-.363,2.352,2.352,0,0,0,1.089-1.4,9.007,9.007,0,0,0,.242-1.466c.094-.713.175-1.439.269-2.165,0-.027.013-.067.013-.094.108-.672.229-1.345.323-2,.134-.887.255-1.788.376-2.676.054-.39.081-.78.134-1.156.108-.78.229-1.56.336-2.339l.2-1.25c.054-.323.094-.632.134-.955.027-.148.054-.3.067-.444.094-.739.175-1.466.269-2.2a.128.128,0,0,1,.027-.094.419.419,0,0,1,.121-.094V6.555C46.426,6.582,46.412,6.461,46.4,6.354ZM22.359,9.876c0-.309.013-.323.323-.323h6.669c.242,0,.282.04.282.282v4.249c0,.309-.067.363-.376.363H22.8c-.457,0-.457-.013-.457-.471C22.359,12.606,22.359,11.248,22.359,9.876Zm-10.1,4.343c-.094-.592-.175-1.183-.255-1.775a3.761,3.761,0,0,0-.081-.376c-.013-.067-.054-.134-.067-.215-.108-.7-.2-1.412-.309-2.111-.013-.134.067-.175.161-.175a3.27,3.27,0,0,1,.363,0h7.543c.323,0,.376.054.376.376v4.087c0,.323-.094.417-.417.417H13.028c-.134,0-.282.013-.417.027A.29.29,0,0,1,12.262,14.219Zm7.328,7.5h-5.7c-.323,0-.4-.081-.43-.417-.013-.2-.067-.4-.094-.592a.709.709,0,0,1-.04-.161c-.094-.632-.188-1.277-.282-1.909a.457.457,0,0,1-.013-.134c-.094-.5-.188-.995-.255-1.492-.013-.054.054-.148.094-.175a.483.483,0,0,1,.242-.027h6.507c.35,0,.39.04.39.4v4.1C20.006,21.614,19.9,21.721,19.589,21.721Zm10.043-.35c0,.282-.067.336-.35.336h-6.6c-.3,0-.336-.04-.336-.336V17.083c0-.188.054-.282.269-.282h6.776c.175,0,.242.067.242.242C29.633,18.495,29.646,19.933,29.633,21.372Zm10.7-4.289v.04c-.121.7-.229,1.4-.35,2.111-.013.094-.027.2-.04.3-.054.336-.108.672-.148,1.022-.027.242-.054.5-.067.739-.027.363-.108.43-.457.43H32.416c-.282,0-.336-.04-.336-.309v-4.37c0-.2.108-.229.269-.229H40.12C40.295,16.814,40.362,16.908,40.335,17.083Zm1.008-7.059c-.121.686-.242,1.358-.336,2.044s-.161,1.345-.242,2.017c-.027.215-.108.309-.323.336H32.349a.238.238,0,0,1-.269-.229.648.648,0,0,1,0-.161V9.849c0-.282.027-.309.309-.309h8.578C41.4,9.567,41.424,9.594,41.344,10.024Z" transform="translate(0 0.1)"/><path class="b" d="M98.209,277.292a3.6,3.6,0,0,0,.148-7.193,3.6,3.6,0,0,0-.148,7.193Z" transform="translate(-81.967 -233.771)"/><path class="b" d="M257.526,275.916a3.536,3.536,0,0,0,1.519,1.13,3.877,3.877,0,0,0,1.21.242,3.4,3.4,0,0,0,2.353-.766,3.808,3.808,0,0,0,1.022-1.25,3.252,3.252,0,0,0,.323-1.425,3.2,3.2,0,0,0-.3-1.613,6.1,6.1,0,0,0-.524-.86,2.821,2.821,0,0,0-1.156-.9,3.1,3.1,0,0,0-.941-.309,3.743,3.743,0,0,0-1.882.148,4.366,4.366,0,0,0-1.277.766,3.271,3.271,0,0,0-.766,1.089,2.836,2.836,0,0,0-.255.74,4.454,4.454,0,0,0-.054.672,2.957,2.957,0,0,0,.242,1.452A5.572,5.572,0,0,0,257.526,275.916Z" transform="translate(-222.273 -233.779)"/></g><circle class="b" cx="10.521" cy="10.521" r="10.521" transform="translate(1685.432 80.578)"/></g></svg>