<svg id="Group_531" data-name="Group 531" xmlns="http://www.w3.org/2000/svg" viewBox="0 0 13.869 14.192">
  <defs>
    <style>
      .cls-1 {
        fill: #fff;
      }
    </style>
  </defs>
  <g id="Group_524" data-name="Group 524" transform="translate(10.208)">
    <g id="Group_522" data-name="Group 522" transform="translate(1.594)">
      <path id="Path_987" data-name="Path 987" class="cls-1" d="M55.037,14.192a.239.239,0,0,1-.237-.237V.237a.237.237,0,1,1,.474,0V13.955A.239.239,0,0,1,55.037,14.192Z" transform="translate(-54.8)"/>
    </g>
    <g id="Group_523" data-name="Group 523" transform="translate(0 4.932)">
      <path id="Path_988" data-name="Path 988" class="cls-1" d="M50.8,23.374H47.637a.237.237,0,0,1,0-.474h3.187a.239.239,0,0,1,.237.237A.244.244,0,0,1,50.8,23.374Z" transform="translate(-47.4 -22.9)"/>
    </g>
  </g>
  <g id="Group_527" data-name="Group 527">
    <g id="Group_525" data-name="Group 525" transform="translate(1.594)">
      <path id="Path_989" data-name="Path 989" class="cls-1" d="M7.637,14.192a.239.239,0,0,1-.237-.237V.237a.237.237,0,1,1,.474,0V13.955A.239.239,0,0,1,7.637,14.192Z" transform="translate(-7.4)"/>
    </g>
    <g id="Group_526" data-name="Group 526" transform="translate(0 2.735)">
      <path id="Path_990" data-name="Path 990" class="cls-1" d="M3.424,13.174H.237a.237.237,0,1,1,0-.474H3.424a.237.237,0,1,1,0,.474Z" transform="translate(0 -12.7)"/>
    </g>
  </g>
  <g id="Group_530" data-name="Group 530" transform="translate(5.104)">
    <g id="Group_528" data-name="Group 528" transform="translate(1.594)">
      <path id="Path_991" data-name="Path 991" class="cls-1" d="M31.337,14.192a.239.239,0,0,1-.237-.237V.237a.237.237,0,1,1,.474,0V13.955A.239.239,0,0,1,31.337,14.192Z" transform="translate(-31.1)"/>
    </g>
    <g id="Group_529" data-name="Group 529" transform="translate(0 10.983)">
      <path id="Path_992" data-name="Path 992" class="cls-1" d="M27.124,51.474H23.937a.237.237,0,1,1,0-.474h3.187a.237.237,0,1,1,0,.474Z" transform="translate(-23.7 -51)"/>
    </g>
  </g>
</svg>
