<svg xmlns="http://www.w3.org/2000/svg" viewBox="0 0 120.06 16.72"><defs><style>.cls-1{fill:#44b1de;}</style></defs><title>Asset 1</title><g id="Layer_2" data-name="Layer 2"><g id="Home_Page" data-name="Home Page"><polygon class="cls-1" points="8.79 0 11.51 5.5 17.58 6.39 13.19 10.67 14.22 16.72 8.79 13.87 3.36 16.72 4.4 10.67 0 6.39 6.08 5.5 8.79 0"/><polygon class="cls-1" points="33.66 0 36.38 5.5 42.45 6.39 38.06 10.67 39.09 16.72 33.66 13.87 28.23 16.72 29.27 10.67 24.87 6.39 30.94 5.5 33.66 0"/><polygon class="cls-1" points="59.53 0 62.25 5.5 68.32 6.39 63.93 10.67 64.96 16.72 59.53 13.87 54.1 16.72 55.13 10.67 50.74 6.39 56.81 5.5 59.53 0"/><polygon class="cls-1" points="85.4 0 88.12 5.5 94.19 6.39 89.8 10.67 90.83 16.72 85.4 13.87 79.97 16.72 81 10.67 76.61 6.39 82.68 5.5 85.4 0"/><polygon class="cls-1" points="111.27 0 113.99 5.5 120.06 6.39 115.67 10.67 116.7 16.72 111.27 13.87 105.84 16.72 106.87 10.67 102.48 6.39 108.55 5.5 111.27 0"/></g></g></svg>