<svg xmlns="http://www.w3.org/2000/svg" viewBox="420.629 2502.312 154.111 125.947"><defs><style>.a,.b{fill:#44b1de;}.a{fill-rule:evenodd;}</style></defs><g transform="translate(-1018 29)"><path class="a" d="M553.6,94.642c-8.413-5.939-21.28-2.722-29.445-13.362,0,0-2.969-3.464,3.712-11.63s7.176-21.28,5.691-31.425C531.83,28.081,522.427,21.4,512.529,21.4S492.982,28.081,491.5,38.226c-1.732,10.145-1.237,23.259,5.691,31.425s3.711,11.63,3.711,11.63c-7.918,10.64-21.032,7.423-29.445,13.362s-6.433,19.548-6.433,19.548h94.77S562.018,100.581,553.6,94.642Z" transform="translate(973.811 2485.069)"/><g transform="translate(1510.342 2473.312)"><path class="b" d="M501.9,26.842V53.566L529.366,26.1Z" transform="translate(-481.857 18.687)"/><path class="b" d="M493.8,36.208a23.5,23.5,0,0,0,23.507,23.507h35.384A23.5,23.5,0,0,0,576.2,36.208v-4.7A23.5,23.5,0,0,0,552.691,8H517.307A23.5,23.5,0,0,0,493.8,31.507Z" transform="translate(-493.8 -8)"/></g></g></svg>