<svg id="Group_365" data-name="Group 365" xmlns="http://www.w3.org/2000/svg" viewBox="0 0 41.381 41.455">
  <defs>
    <style>
      .cls-1 {
        fill: #a0a0a0;
      }
    </style>
  </defs>
  <path id="Path_210" data-name="Path 210" class="cls-1" d="M31.349,38.283H10.032a3.117,3.117,0,0,1-3.1-3.1V32.677H1.475A1.48,1.48,0,0,1,0,31.2V11.064A11.176,11.176,0,0,1,6.86.811,11.83,11.83,0,0,1,11.064,0h3.909V.664a5.856,5.856,0,0,0,5.9,5.827,5.9,5.9,0,0,0,5.9-5.827V0h3.541a10.238,10.238,0,0,1,4.2.885,12,12,0,0,1,3.614,2.434,11.053,11.053,0,0,1,3.246,7.819V31.2a1.48,1.48,0,0,1-1.475,1.475H34.447v2.508A3.117,3.117,0,0,1,31.349,38.283ZM11.064,1.4a9.152,9.152,0,0,0-3.688.738,8.983,8.983,0,0,0-3.1,2.139A9.367,9.367,0,0,0,1.4,11.064V31.128l6.934.074v3.909a1.669,1.669,0,0,0,1.7,1.7H31.349a1.669,1.669,0,0,0,1.7-1.7V31.2h6.86l.074-20.137A9.66,9.66,0,0,0,37.1,4.2a9.078,9.078,0,0,0-3.172-2.065A9.152,9.152,0,0,0,30.243,1.4H28.03a7.262,7.262,0,0,1-14.457,0H11.064Z"/>
  <path id="Path_211" data-name="Path 211" class="cls-1" d="M36.651,38.78h-1.4V20.708A3,3,0,0,1,36.725,18.2l.664,1.254a1.591,1.591,0,0,0-.738,1.254Zm-26.112,0h-1.4V20.708A1.591,1.591,0,0,0,8.4,19.454L9.064,18.2a2.866,2.866,0,0,1,1.475,2.508V38.78Z" transform="translate(-2.204 -4.775)"/>
  <path id="Path_212" data-name="Path 212" class="cls-1" d="M35.393,54.573H12.6V50H35.319v4.573ZM14,53.172H33.917V51.4H14Z" transform="translate(-3.306 -13.119)"/>
  <path id="Path_213" data-name="Path 213" class="cls-1" d="M8.624,46.973H1.1V42.4H8.624ZM2.5,45.572H7.222V43.8H2.5Z" transform="translate(-0.289 -11.125)"/>
  <path id="Path_214" data-name="Path 214" class="cls-1" d="M52.324,46.973H44.8V42.4h7.524Zm-6.122-1.4h4.721V43.8H46.2Z" transform="translate(-11.754 -11.125)"/>
  <rect id="Rectangle_129" data-name="Rectangle 129" class="cls-1" width="13.13" height="1.401" transform="translate(14.31)"/>
</svg>
