<svg id="Group_377" data-name="Group 377" xmlns="http://www.w3.org/2000/svg" viewBox="0 0 35.771 35.835">
  <defs>
    <style>
      .cls-1 {
        fill: #a0a0a0;
      }
    </style>
  </defs>
  <g id="Group_271" data-name="Group 271">
    <path id="Path_210" data-name="Path 210" class="cls-1" d="M27.1,33.093H8.672a2.694,2.694,0,0,1-2.678-2.678V28.247H1.275A1.279,1.279,0,0,1,0,26.972V9.565A9.661,9.661,0,0,1,5.93.7,10.226,10.226,0,0,1,9.565,0h3.379V.574a5.062,5.062,0,0,0,5.1,5.037,5.1,5.1,0,0,0,5.1-5.037V0h3.061a8.85,8.85,0,0,1,3.635.765,10.373,10.373,0,0,1,3.124,2.1,9.555,9.555,0,0,1,2.806,6.759V26.972A1.279,1.279,0,0,1,34.5,28.247H29.777v2.168A2.694,2.694,0,0,1,27.1,33.093ZM9.565,1.212a7.911,7.911,0,0,0-3.188.638A7.765,7.765,0,0,0,3.7,3.7,8.1,8.1,0,0,0,1.212,9.565V26.908l5.994.064v3.379a1.443,1.443,0,0,0,1.467,1.467H27.1a1.443,1.443,0,0,0,1.467-1.467V26.972H34.5L34.56,9.565a8.351,8.351,0,0,0-2.487-5.93,7.847,7.847,0,0,0-2.742-1.785,7.911,7.911,0,0,0-3.188-.638H24.23a6.278,6.278,0,0,1-12.5,0H9.565Z"/>
    <path id="Path_211" data-name="Path 211" class="cls-1" d="M32.821,35.99H31.61V20.368A2.6,2.6,0,0,1,32.885,18.2l.574,1.084a1.375,1.375,0,0,0-.638,1.084Zm-22.572,0H9.038V20.368A1.375,1.375,0,0,0,8.4,19.284L8.974,18.2a2.478,2.478,0,0,1,1.275,2.168V35.99Z" transform="translate(-3.044 -6.595)"/>
    <path id="Path_212" data-name="Path 212" class="cls-1" d="M32.3,53.953H12.6V50H32.239v3.953ZM13.812,52.742H31.028v-1.53H13.812Z" transform="translate(-4.566 -18.118)"/>
    <path id="Path_213" data-name="Path 213" class="cls-1" d="M7.6,46.353H1.1V42.4H7.6ZM2.312,45.142H6.392v-1.53H2.312Z" transform="translate(-0.399 -15.364)"/>
    <path id="Path_214" data-name="Path 214" class="cls-1" d="M51.3,46.353H44.8V42.4h6.5Zm-5.292-1.212h4.081v-1.53H46.011Z" transform="translate(-16.234 -15.364)"/>
    <rect id="Rectangle_129" data-name="Rectangle 129" class="cls-1" width="11.35" height="1.212" transform="translate(12.37)"/>
  </g>
</svg>
