<svg id="Group_374" data-name="Group 374" xmlns="http://www.w3.org/2000/svg" viewBox="0 0 43.562 40.301">
  <defs>
    <style>
      .cls-1 {
        fill: #a0a0a0;
      }
    </style>
  </defs>
  <g id="Group_269" data-name="Group 269" transform="translate(0 0)">
    <path id="Path_206" data-name="Path 206" class="cls-1" d="M36.263,40.3H7.3V20.189H0V11.648A11.765,11.765,0,0,1,7.222.854,12.453,12.453,0,0,1,11.648,0h4.115V.7a6.164,6.164,0,0,0,6.212,6.134A6.215,6.215,0,0,0,28.187.7V0h3.727a10.777,10.777,0,0,1,4.426.932,12.632,12.632,0,0,1,3.8,2.562,11.636,11.636,0,0,1,3.417,8.231v8.464h-7.3ZM8.775,38.825H34.787V18.714h7.3V11.725A10.17,10.17,0,0,0,39.058,4.5,9.556,9.556,0,0,0,35.719,2.33a9.634,9.634,0,0,0-3.883-.777h-2.33a7.645,7.645,0,0,1-15.22,0h-2.64a9.634,9.634,0,0,0-3.883.777A8.316,8.316,0,0,0,4.5,4.5a9.861,9.861,0,0,0-3.028,7.144v6.989h7.3V38.825Z" transform="translate(0 0)"/>
    <path id="Path_207" data-name="Path 207" class="cls-1" d="M10.652,23.48H9.177V20.84A1.675,1.675,0,0,0,8.4,19.52l.7-1.32a3.017,3.017,0,0,1,1.553,2.64Z" transform="translate(-1.877 -4.068)"/>
    <path id="Path_208" data-name="Path 208" class="cls-1" d="M46.275,23.48H44.8V20.84a3.16,3.16,0,0,1,1.553-2.64l.7,1.32a1.675,1.675,0,0,0-.777,1.32Z" transform="translate(-10.013 -4.068)"/>
    <rect id="Rectangle_127" data-name="Rectangle 127" class="cls-1" width="27.488" height="1.475" transform="translate(7.998 35.409)"/>
    <rect id="Rectangle_128" data-name="Rectangle 128" class="cls-1" width="13.822" height="1.475" transform="translate(14.831 0)"/>
    <path id="Path_209" data-name="Path 209" class="cls-1" d="M29.958,3.96H24.6V0h5.358Zm-3.883-1.4h2.407V1.475H26.075Z" transform="translate(-5.498 0)"/>
  </g>
</svg>
