<svg xmlns="http://www.w3.org/2000/svg" viewBox="4824 -826.395 162.015 176.021">
  <defs>
    <style>
      .cls-1 {
        fill: #363636;
      }
    </style>
  </defs>
  <g id="Group_332" data-name="Group 332" transform="translate(4824.1 -838.373)">
    <path id="Path_225" data-name="Path 225" class="cls-1" d="M115.908,59.554c1.929.129,2.958.257,3.987.257,4.63,0,9.26.257,13.762,0,13.376-.9,18.134,9,19.035,18.006.257,2.958-1.543,6.3-.643,8.746s4.373,3.987,6.045,6.3c6.559,9.389,4.373,23.665-4.244,29.709a3.726,3.726,0,0,0-1.158,3.087c1.158,9-.643,16.72-8.488,22.379-.9.643-1.286,2.572-1.158,3.858a23.38,23.38,0,0,1-2.958,16.334c-2.958,4.887-7.331,7.588-12.99,7.588-16.977.129-33.825.386-50.8-.129-17.105-.386-29.838-9.646-39.741-22.764-2.444-3.215-4.759-4.5-8.746-4.244-6.431.257-12.861.129-19.292.129-5.53,0-8.231-2.829-8.36-8.36C.029,118.587-.1,96.723-.1,74.859c0-4.887,3.087-7.974,8.1-7.974,8.488,0,16.977.129,25.337-.129a8.889,8.889,0,0,0,5.144-1.8c11.7-9.517,23.279-19.163,34.983-28.681a97.945,97.945,0,0,1,10.289-7.2c9-5.273,15.176-12.99,20.192-21.864,2.186-3.344,3.73-6.945,8.617-7.2,5.916-.257,10.932,1.158,14.4,6.173a29.9,29.9,0,0,1,4.759,22.636c-1.8,9.9-7.074,18.263-12.733,26.366C118.095,56.339,117.323,57.5,115.908,59.554ZM87.742,121.031a75.629,75.629,0,0,1-4.63-6.559c-1.029-1.929-1.929-1.929-3.473-.772a34.926,34.926,0,0,1-16.334,6.945c-3.215.514-5.53-.643-6.045-3.215-.514-2.315,1.672-4.5,4.63-5.144a40.808,40.808,0,0,0,7.074-1.929A28.124,28.124,0,0,0,85.684,82.19c-.9-9.9,3.73-17.234,12.99-20.835a4.57,4.57,0,0,0,2.058-1.415c7.2-7.717,13.762-16.205,18.263-25.98,3.215-6.945,4.116-14.019.257-20.964a6.437,6.437,0,0,0-4.373-2.572c-1.158,0-2.572,1.672-3.73,2.7a9.187,9.187,0,0,0-1.029,1.929c-4.63,9.389-10.675,17.234-19.678,22.764A142.084,142.084,0,0,0,74.5,49.651C63.949,58.139,53.531,67.013,42.857,75.373a13.942,13.942,0,0,1-7.845,2.572c-6.945.386-13.89.257-20.835.129-2.7,0-3.73.772-3.73,3.6.129,17.491.129,34.983,0,52.345,0,2.829.9,3.73,3.73,3.73,6.945-.129,13.89,0,20.835,0a6.86,6.86,0,0,1,6.173,3.215A111.93,111.93,0,0,0,51.859,153.7c11.575,11.961,26.494,11.832,41.413,10.675,0-3.6-.514-7.2.129-10.546.9-3.987,1.158-7.074-2.958-9.26a7.717,7.717,0,0,1-2.058-2.444C83.884,135.049,84.4,128.1,87.742,121.031Zm33.825-7.074c7.717,0,15.433-.129,23.15,0,2.7,0,4.373-1.029,5.273-3.344,1.543-3.73,1.8-7.588-.514-11.061a7.189,7.189,0,0,0-4.5-2.7c-15.562-.257-31-.257-46.558,0a6.778,6.778,0,0,0-4.63,2.572,11.072,11.072,0,0,0-.772,10.418c1.158,2.958,2.958,4.116,6.045,3.987C106.52,113.828,113.979,113.957,121.567,113.957ZM119,122.7c-5.53,0-11.061.129-16.72,0-2.7,0-4.63,1.029-5.273,3.6-.514,2.315-1.158,4.887-.772,7.2.514,4.5,2.958,6.173,7.331,6.173h31.381c2.829,0,5.145-1.158,5.659-3.6a29.162,29.162,0,0,0,.129-10.032c-.386-2.444-2.7-3.6-5.4-3.473C129.927,122.831,124.525,122.7,119,122.7Zm-.386-34.854c5.53,0,11.189-.129,16.72,0,3.215.129,5.273-1.415,5.659-4.116a32.165,32.165,0,0,0-.643-9.9c-.514-2.315-2.444-3.215-5.016-3.215-11.061.129-22.121-.129-33.053.129a6.19,6.19,0,0,0-4.759,2.829,17,17,0,0,0-1.158,8.36c.514,4.373,2.7,5.788,7.2,5.788C108.577,87.849,113.593,87.849,118.609,87.849Zm-1.672,77.167a74.172,74.172,0,0,0,9.26-.129,6.1,6.1,0,0,0,4.244-2.058,10.937,10.937,0,0,0,.9-11.189,5.46,5.46,0,0,0-5.53-3.473c-5.53,0-11.189-.129-16.72.129a9.331,9.331,0,0,0-4.759,2.058c-2.829,2.572-3.473,8.36-1.029,11.832a6.406,6.406,0,0,0,4.5,2.7C110.892,165.4,113.979,165.016,116.937,165.016Z" transform="translate(0 12)"/>
  </g>
</svg>
