<svg xmlns="http://www.w3.org/2000/svg" viewBox="0 0 105.357 35.232">
  <defs>
    <style>
      .cls-1 {
        fill: none;
      }

      .cls-2 {
        fill: #fff;
      }

      .cls-3 {
        fill: #f7c021;
      }
    </style>
  </defs>
  <g id="Group_418" data-name="Group 418" transform="translate(0 -0.074)">
    <path id="Path_961" data-name="Path 961" class="cls-1" d="M57.234,59.335c0-.034-.034-.068-.034-.135A.2.2,0,0,0,57.234,59.335Z" transform="translate(-37.884 -39.16)"/>
    <path id="Path_962" data-name="Path 962" class="cls-2" d="M248.914,35.8c-.608-3.748-1.182-7.5-1.79-11.245-1.182-7.362-2.364-14.689-3.512-22.051-.068-.338-.169-.405-.473-.405-2.127,0-4.255.034-6.416,0a5.122,5.122,0,0,0-3.782,1.553,15.123,15.123,0,0,0-2.9,4.356c-4.187,8.746-8.24,17.526-12.326,26.306-.3.642-.574,1.249-.912,1.959h9.354a.586.586,0,0,0,.642-.439c.743-1.857,1.486-3.715,2.229-5.606.1-.236.2-.371.473-.371h9.05a.349.349,0,0,1,.405.3c.27,1.891.574,3.782.844,5.673.034.338.169.371.473.371h8.24C248.982,36.274,248.982,36.274,248.914,35.8ZM237.6,22.834h-5.538c1.385-3.411,2.769-6.788,4.12-10.164h.068c.2,1.216.371,2.465.574,3.681.3,2.026.608,4.086.945,6.112C237.8,22.632,237.939,22.834,237.6,22.834Z" transform="translate(-143.589 -1.342)"/>
    <path id="Path_963" data-name="Path 963" class="cls-2" d="M167.031,16.224a33.335,33.335,0,0,0-4.322-2.6,11.218,11.218,0,0,1-2.5-1.688,2.845,2.845,0,0,1-.777-3.073,2.713,2.713,0,0,1,2.364-1.79,8.944,8.944,0,0,1,3.141.135A29.255,29.255,0,0,1,171.184,9.2c.3.135.371.068.439-.236.338-2.229.743-4.457,1.114-6.652.1-.608.1-.608-.473-.844-.034,0-.068,0-.068-.034A21.752,21.752,0,0,0,166.355.184a19.957,19.957,0,0,0-9.32,1.182,12.785,12.785,0,0,0-6.011,4.289A8.575,8.575,0,0,0,149.91,14.5a10.584,10.584,0,0,0,3.512,4.019c1.385,1.047,2.938,1.891,4.39,2.8a9.235,9.235,0,0,1,2.127,1.655,2.3,2.3,0,0,1,.642,1.891,3.22,3.22,0,0,1-2.229,2.6,9.845,9.845,0,0,1-4.93.54,15.58,15.58,0,0,1-6.652-2.634c-.27-.169-.338-.169-.439.169-.642,2.4-1.317,4.8-1.992,7.159a.31.31,0,0,0,.169.439c.338.169.675.405,1.013.574a18.038,18.038,0,0,0,8.273,1.587c.507-.034,1.452-.068,2.4-.135a23.368,23.368,0,0,0,7.125-1.688c4.086-1.79,6.686-4.694,7.091-9.286A8.431,8.431,0,0,0,167.031,16.224Z" transform="translate(-95.576)"/>
    <path id="Path_964" data-name="Path 964" class="cls-2" d="M55.248,2.2H46.333a.591.591,0,0,0-.608.405c-2.972,6.99-5.91,13.947-8.881,20.937-.034.1-.034.236-.2.3-.1-.743-.169-1.52-.236-2.263-.034-.034-.034-.068-.034-.135a26.828,26.828,0,0,0-.946-3.208A18.529,18.529,0,0,0,25.8,7.907a.124.124,0,0,0-.1-.034h0c.3,1.756.642,3.512.946,5.268,1.385,7.632,2.769,15.23,4.12,22.862.068.3.169.371.439.371,1.486,0,3.005-.034,4.491,0a5.315,5.315,0,0,0,4.187-1.824,16.46,16.46,0,0,0,2.634-4.12c4.39-9.253,8.679-18.539,13-27.826C55.721,2.2,55.721,2.2,55.248,2.2Z" transform="translate(-17.021 -1.408)"/>
    <path id="Path_965" data-name="Path 965" class="cls-2" d="M118.158,2.1h-8.1c-.338,0-.439.1-.507.405-.946,4.39-1.925,8.78-2.87,13.17-1.486,6.754-2.938,13.508-4.424,20.228-.068.3,0,.371.3.371h8.206c.27,0,.371-.1.405-.338.338-1.553.675-3.073,1.013-4.626l6.281-28.771C118.563,2.2,118.53,2.1,118.158,2.1Z" transform="translate(-67.707 -1.342)"/>
    <path id="Path_966" data-name="Path 966" class="cls-3" d="M18.37,18.24c.405,1.047.642,2.127.946,3.208,0,.034.034.068.034.135a1.925,1.925,0,0,0-.034-.439c-.3-2.229-.608-4.491-.946-6.72-.54-3.917-1.081-7.868-1.587-11.785-.034-.371-.169-.439-.507-.439H1.182c-.169,0-.3,0-.371.236C.574,3.483.27,4.53,0,5.644a23.614,23.614,0,0,1,2.7.338A24.387,24.387,0,0,1,8.645,7.873h0c.034,0,.068.034.1.034A18.305,18.305,0,0,1,18.37,18.24Z" transform="translate(0 -1.408)"/>
  </g>
</svg>
