<svg id="Group_610" data-name="Group 610" xmlns="http://www.w3.org/2000/svg" viewBox="0 0 85.478 85.478">
  <defs>
    <style>
      .cls-1 {
        fill: #fff;
      }
    </style>
  </defs>
  <path id="Path_994" data-name="Path 994" class="cls-1" d="M85.478,42.687A42.739,42.739,0,1,1,42.8,0,42.638,42.638,0,0,1,85.478,42.687ZM8.631,42.673A34.108,34.108,0,1,0,42.907,8.631,34,34,0,0,0,8.631,42.673Z" transform="translate(0 0)"/>
  <path id="Path_995" data-name="Path 995" class="cls-1" d="M159.419,222.86c6.4-5.334,12.676-10.551,18.948-15.783.938-.777,1.861-1.583,2.814-2.345,2.2-1.729,4.689-1.539,6.3.454,1.553,1.905,1.334,4.338-.747,6.111-5.862,4.968-11.782,9.848-17.673,14.772-2.477,2.066-4.938,4.162-7.444,6.2-2.565,2.1-5.1,1.729-6.975-1.011-2.7-3.971-5.349-7.987-7.987-12-1.627-2.491-1.246-4.953.923-6.4,2.14-1.436,4.572-.806,6.257,1.671C155.7,217.262,157.514,220,159.419,222.86Z" transform="translate(-124.308 -173.724)"/>
</svg>
